<svg xmlns="http://www.w3.org/2000/svg" xmlns:xlink="http://www.w3.org/1999/xlink" viewBox="0 0 1200 800"><defs><style>.cls-1{isolation:isolate;}.cls-2{opacity:0.5;fill:url(#linear-gradient);}.cls-3,.cls-8{opacity:0.26;}.cls-4{fill:url(#linear-gradient-2);}.cls-5{fill:url(#linear-gradient-3);}.cls-10,.cls-31,.cls-33,.cls-6,.cls-81,.cls-83{fill:#fff;}.cls-6{opacity:0.62;}.cls-7{fill:url(#linear-gradient-4);}.cls-8{fill:url(#linear-gradient-5);}.cls-9{opacity:0.68;}.cls-10{mix-blend-mode:soft-light;}.cls-11{fill:url(#linear-gradient-6);}.cls-12{fill:url(#linear-gradient-7);}.cls-13{fill:url(#linear-gradient-8);}.cls-14{fill:url(#linear-gradient-9);}.cls-15{fill:url(#linear-gradient-10);}.cls-16{fill:url(#linear-gradient-11);}.cls-17{fill:url(#linear-gradient-12);}.cls-18{fill:url(#linear-gradient-13);}.cls-19{fill:url(#linear-gradient-14);}.cls-20{fill:url(#linear-gradient-15);}.cls-21{fill:url(#linear-gradient-16);}.cls-22{fill:url(#linear-gradient-17);}.cls-23{fill:url(#linear-gradient-18);}.cls-24{fill:url(#linear-gradient-19);}.cls-25{fill:url(#linear-gradient-20);}.cls-26{fill:url(#linear-gradient-21);}.cls-27{fill:url(#linear-gradient-22);}.cls-28{fill:url(#linear-gradient-23);}.cls-29{fill:url(#linear-gradient-24);}.cls-30{fill:url(#linear-gradient-25);}.cls-32{fill:url(#linear-gradient-26);}.cls-33{opacity:0.57;}.cls-34{fill:url(#linear-gradient-27);}.cls-35{fill:url(#linear-gradient-28);}.cls-36{fill:url(#linear-gradient-29);}.cls-37{fill:url(#linear-gradient-30);}.cls-38{fill:url(#linear-gradient-31);}.cls-39{fill:url(#linear-gradient-32);}.cls-40{fill:url(#linear-gradient-33);}.cls-41{fill:url(#linear-gradient-34);}.cls-42{fill:url(#linear-gradient-35);}.cls-43{fill:url(#linear-gradient-36);}.cls-44{fill:url(#linear-gradient-37);}.cls-45{fill:url(#linear-gradient-38);}.cls-46{fill:url(#linear-gradient-39);}.cls-47{fill:url(#linear-gradient-40);}.cls-48{fill:url(#linear-gradient-41);}.cls-49{fill:url(#linear-gradient-42);}.cls-50{fill:url(#linear-gradient-43);}.cls-51{fill:url(#linear-gradient-44);}.cls-52{fill:url(#linear-gradient-45);}.cls-53{fill:url(#linear-gradient-46);}.cls-54{fill:url(#linear-gradient-47);}.cls-55{fill:url(#linear-gradient-48);}.cls-56{fill:url(#linear-gradient-49);}.cls-57{fill:url(#linear-gradient-50);}.cls-58{fill:url(#linear-gradient-51);}.cls-59{fill:url(#linear-gradient-52);}.cls-60{fill:url(#linear-gradient-53);}.cls-61{fill:url(#linear-gradient-54);}.cls-62{fill:url(#linear-gradient-55);}.cls-63{fill:url(#linear-gradient-56);}.cls-64{fill:url(#linear-gradient-57);}.cls-65{fill:url(#linear-gradient-58);}.cls-66{fill:url(#linear-gradient-59);}.cls-67{fill:url(#linear-gradient-60);}.cls-68{fill:url(#linear-gradient-61);}.cls-69{fill:url(#linear-gradient-62);}.cls-70{fill:url(#linear-gradient-63);}.cls-71{fill:url(#linear-gradient-64);}.cls-72{fill:url(#linear-gradient-65);}.cls-73{fill:url(#linear-gradient-66);}.cls-74{fill:url(#linear-gradient-67);}.cls-75{fill:url(#linear-gradient-68);}.cls-76{fill:url(#linear-gradient-69);}.cls-77{fill:url(#linear-gradient-70);}.cls-78{fill:url(#linear-gradient-71);}.cls-79{fill:url(#linear-gradient-72);}.cls-80{fill:url(#linear-gradient-73);}.cls-81{opacity:0.75;}.cls-82{fill:url(#linear-gradient-74);}.cls-83{fill-rule:evenodd;}.cls-84{fill:url(#linear-gradient-75);}.cls-85{fill:url(#linear-gradient-76);}.cls-86{fill:url(#linear-gradient-77);}.cls-87{fill:url(#linear-gradient-78);}.cls-88{fill:url(#linear-gradient-79);}</style><linearGradient id="linear-gradient" x1="113.59" y1="403.25" x2="1107.85" y2="403.25" gradientUnits="userSpaceOnUse"><stop offset="0" stop-color="#b37cff"/><stop offset="1" stop-color="#f895e7"/></linearGradient><linearGradient id="linear-gradient-2" x1="53.49" y1="395.45" x2="1146.51" y2="395.45" xlink:href="#linear-gradient"/><linearGradient id="linear-gradient-3" x1="-796.97" y1="1046" x2="-386.11" y2="128.56" gradientTransform="matrix(-1, 0, 0, 1, 219, 0)" xlink:href="#linear-gradient"/><linearGradient id="linear-gradient-4" x1="588.64" y1="414.2" x2="474.53" y2="153.61" gradientTransform="translate(1013.4 -178.59) rotate(87.49)" gradientUnits="userSpaceOnUse"><stop offset="0" stop-color="#a737d5"/><stop offset="1" stop-color="#ef497a"/></linearGradient><linearGradient id="linear-gradient-5" x1="365.51" y1="421.45" x2="804.23" y2="421.45" xlink:href="#linear-gradient"/><linearGradient id="linear-gradient-6" x1="780.48" y1="257.35" x2="804.61" y2="282.55" gradientUnits="userSpaceOnUse"><stop offset="0" stop-color="#2b3582"/><stop offset="1" stop-color="#150e42"/></linearGradient><linearGradient id="linear-gradient-7" x1="743.24" y1="232.35" x2="768.36" y2="137.71" gradientUnits="userSpaceOnUse"><stop offset="0" stop-color="#53d8ff"/><stop offset="1" stop-color="#3840f7"/></linearGradient><linearGradient id="linear-gradient-8" x1="812.49" y1="320.6" x2="858.13" y2="354.1" xlink:href="#linear-gradient-6"/><linearGradient id="linear-gradient-9" x1="787.42" y1="262.01" x2="818.4" y2="169.89" xlink:href="#linear-gradient-6"/><linearGradient id="linear-gradient-10" x1="841.74" y1="280.29" x2="872.73" y2="188.16" xlink:href="#linear-gradient-6"/><linearGradient id="linear-gradient-11" x1="813.17" y1="257.06" x2="717.56" y2="293.12" xlink:href="#linear-gradient-7"/><linearGradient id="linear-gradient-12" x1="738.75" y1="196.8" x2="707.76" y2="233.65" gradientUnits="userSpaceOnUse"><stop offset="0" stop-color="#f9b776"/><stop offset="1" stop-color="#f47960"/></linearGradient><linearGradient id="linear-gradient-13" x1="703.24" y1="157.04" x2="546.08" y2="362.56" gradientUnits="userSpaceOnUse"><stop offset="0" stop-color="#fdf53f"/><stop offset="1" stop-color="#d93c65"/></linearGradient><linearGradient id="linear-gradient-14" x1="702.62" y1="230.33" x2="764.55" y2="145.59" xlink:href="#linear-gradient-12"/><linearGradient id="linear-gradient-15" x1="664.73" y1="160.11" x2="667.01" y2="139.58" xlink:href="#linear-gradient-12"/><linearGradient id="linear-gradient-16" x1="676.9" y1="142.2" x2="666.84" y2="109.03" xlink:href="#linear-gradient-12"/><linearGradient id="linear-gradient-17" x1="667.82" y1="81.3" x2="677.17" y2="134.63" xlink:href="#linear-gradient-6"/><linearGradient id="linear-gradient-18" x1="666.48" y1="145.36" x2="656.42" y2="112.19" xlink:href="#linear-gradient-12"/><linearGradient id="linear-gradient-19" x1="748.67" y1="211.16" x2="795.8" y2="211.16" xlink:href="#linear-gradient-6"/><linearGradient id="linear-gradient-20" x1="754.39" y1="231.76" x2="716.71" y2="242.09" xlink:href="#linear-gradient-6"/><linearGradient id="linear-gradient-21" x1="724.32" y1="129.86" x2="668.21" y2="225.33" xlink:href="#linear-gradient-13"/><linearGradient id="linear-gradient-22" x1="707.13" y1="119.76" x2="651.02" y2="215.23" xlink:href="#linear-gradient-13"/><linearGradient id="linear-gradient-23" x1="700.91" y1="116.1" x2="644.8" y2="211.57" xlink:href="#linear-gradient-13"/><linearGradient id="linear-gradient-24" x1="589.42" y1="410.81" x2="538.42" y2="622.3" xlink:href="#linear-gradient-7"/><linearGradient id="linear-gradient-25" x1="1021.27" y1="-4.43" x2="-51.93" y2="1084.43" xlink:href="#linear-gradient-7"/><linearGradient id="linear-gradient-26" x1="351.89" y1="552.18" x2="461.89" y2="704.18" xlink:href="#linear-gradient-13"/><linearGradient id="linear-gradient-27" x1="343.2" y1="-5157.78" x2="314.2" y2="-5271.43" gradientTransform="matrix(-0.81, 0.59, 0.59, 0.81, 3698.5, 4692.63)" xlink:href="#linear-gradient-4"/><linearGradient id="linear-gradient-28" x1="11472.84" y1="706.86" x2="11487.01" y2="617.69" gradientTransform="translate(-10487.12)" gradientUnits="userSpaceOnUse"><stop offset="0" stop-color="#cb236d"/><stop offset="1" stop-color="#4c246d"/></linearGradient><linearGradient id="linear-gradient-29" x1="11478.42" y1="707.6" x2="11492.86" y2="616.78" xlink:href="#linear-gradient-28"/><linearGradient id="linear-gradient-30" x1="11466.92" y1="710.22" x2="11481.98" y2="615.45" gradientTransform="translate(-10487.12)" xlink:href="#linear-gradient-13"/><linearGradient id="linear-gradient-31" x1="-470.71" y1="601.34" x2="-482.29" y2="624.11" gradientTransform="matrix(-0.98, -0.22, -0.22, 0.98, 590.4, -17.02)" xlink:href="#linear-gradient-6"/><linearGradient id="linear-gradient-32" x1="-492.72" y1="610.4" x2="-481.19" y2="610.4" gradientTransform="matrix(-0.98, -0.22, -0.22, 0.98, 590.4, -17.02)" xlink:href="#linear-gradient-12"/><linearGradient id="linear-gradient-33" x1="-508.69" y1="579.88" x2="-459.67" y2="511.19" gradientTransform="matrix(-0.98, -0.22, -0.22, 0.98, 590.4, -17.02)" gradientUnits="userSpaceOnUse"><stop offset="0" stop-color="#2b3582"/><stop offset="0.23" stop-color="#252a70"/><stop offset="0.73" stop-color="#19164f"/><stop offset="1" stop-color="#150e42"/></linearGradient><linearGradient id="linear-gradient-34" x1="-477.43" y1="624.36" x2="-517.56" y2="676.85" gradientTransform="matrix(-0.98, -0.22, -0.22, 0.98, 590.4, -17.02)" xlink:href="#linear-gradient-6"/><linearGradient id="linear-gradient-35" x1="-497.51" y1="635.72" x2="-466.5" y2="635.72" gradientTransform="matrix(-0.98, -0.22, -0.22, 0.98, 590.4, -17.02)" xlink:href="#linear-gradient-7"/><linearGradient id="linear-gradient-36" x1="-501.06" y1="621.04" x2="-490.24" y2="621.04" gradientTransform="matrix(-0.98, -0.22, -0.22, 0.98, 590.4, -17.02)" xlink:href="#linear-gradient-12"/><linearGradient id="linear-gradient-37" x1="-526.35" y1="614.11" x2="-523.65" y2="522.26" gradientTransform="matrix(-0.98, -0.22, -0.22, 0.98, 590.4, -17.02)" xlink:href="#linear-gradient-6"/><linearGradient id="linear-gradient-38" x1="631.82" y1="629.96" x2="659.22" y2="602.35" gradientTransform="matrix(-0.98, -0.22, -0.22, 0.98, 1708.48, 105.31)" xlink:href="#linear-gradient-28"/><linearGradient id="linear-gradient-39" x1="-462.11" y1="507.11" x2="-424.35" y2="507.11" gradientTransform="matrix(-0.98, -0.22, -0.22, 0.98, 590.4, -17.02)" xlink:href="#linear-gradient-12"/><linearGradient id="linear-gradient-40" x1="967.49" y1="508.26" x2="1039.23" y2="635.57" gradientTransform="matrix(1, 0, 0, 1, 0, 0)" xlink:href="#linear-gradient-28"/><linearGradient id="linear-gradient-41" x1="-504.02" y1="439.2" x2="-478.97" y2="439.2" gradientTransform="matrix(-0.98, -0.22, -0.22, 0.98, 590.4, -17.02)" xlink:href="#linear-gradient-12"/><linearGradient id="linear-gradient-42" x1="995.06" y1="492.73" x2="1066.8" y2="620.03" gradientTransform="matrix(1, 0, 0, 1, 0, 0)" xlink:href="#linear-gradient-28"/><linearGradient id="linear-gradient-43" x1="-216.6" y1="596.86" x2="-299.98" y2="741.74" gradientTransform="matrix(-1, 0.1, 0.1, 1, 732.83, 10.34)" xlink:href="#linear-gradient-12"/><linearGradient id="linear-gradient-44" x1="-2491.11" y1="-1730.3" x2="-2526.65" y2="-1683.29" gradientTransform="matrix(-1, -0.06, -0.06, 1, -1629.53, 2082.65)" xlink:href="#linear-gradient-12"/><linearGradient id="linear-gradient-45" x1="-2513.87" y1="-1733.08" x2="-2476.46" y2="-1733.08" gradientTransform="matrix(-1, -0.06, -0.06, 1, -1629.53, 2082.65)" xlink:href="#linear-gradient-6"/><linearGradient id="linear-gradient-46" x1="-2535.82" y1="-1698" x2="-2510.7" y2="-1723.77" gradientTransform="matrix(-1, -0.06, -0.06, 1, -1629.53, 2082.65)" xlink:href="#linear-gradient-12"/><linearGradient id="linear-gradient-47" x1="11385.76" y1="1260.04" x2="11336.64" y2="1273.5" gradientTransform="translate(-10458.22 -118.78) rotate(-2.83)" xlink:href="#linear-gradient-6"/><linearGradient id="linear-gradient-48" x1="11396.77" y1="545.57" x2="11361.92" y2="582.4" gradientTransform="translate(-10487.12)" xlink:href="#linear-gradient-6"/><linearGradient id="linear-gradient-49" x1="11342.67" y1="661.3" x2="11401.52" y2="661.3" gradientTransform="translate(-10487.12)" gradientUnits="userSpaceOnUse"><stop offset="0" stop-color="#9cfffb"/><stop offset="1" stop-color="#9bfffa"/></linearGradient><linearGradient id="linear-gradient-50" x1="11349.47" y1="661.3" x2="11408.32" y2="661.3" xlink:href="#linear-gradient-49"/><linearGradient id="linear-gradient-51" x1="11508.97" y1="661.3" x2="11567.82" y2="661.3" xlink:href="#linear-gradient-49"/><linearGradient id="linear-gradient-52" x1="11515.77" y1="661.3" x2="11574.61" y2="661.3" xlink:href="#linear-gradient-49"/><linearGradient id="linear-gradient-53" x1="11328.8" y1="599.54" x2="11578.4" y2="599.54" xlink:href="#linear-gradient-49"/><linearGradient id="linear-gradient-54" x1="-3164.33" y1="797.01" x2="-3150.83" y2="597.53" gradientTransform="matrix(-0.95, 0.3, 0.3, 0.95, -2903.85, 615.29)" gradientUnits="userSpaceOnUse"><stop offset="0" stop-color="#fdf53f"/><stop offset="0.66" stop-color="#e57a58"/><stop offset="1" stop-color="#d93c65"/></linearGradient><linearGradient id="linear-gradient-55" x1="-3955.97" y1="-1756.32" x2="-4020.94" y2="-1795.69" gradientTransform="matrix(-0.98, -0.2, 0, 0.93, -3586.94, 1035.55)" xlink:href="#linear-gradient-7"/><linearGradient id="linear-gradient-56" x1="-3992.03" y1="-1770.88" x2="-4066.37" y2="-1849.48" gradientTransform="matrix(-0.98, -0.2, 0, 0.93, -3586.94, 1035.55)" xlink:href="#linear-gradient-7"/><linearGradient id="linear-gradient-57" x1="-3960.72" y1="-1756.98" x2="-4021.4" y2="-1793.75" gradientTransform="matrix(-0.98, -0.2, 0, 0.93, -3586.94, 1035.55)" xlink:href="#linear-gradient-7"/><linearGradient id="linear-gradient-58" x1="1299.14" y1="-1531.63" x2="1326.87" y2="-1539.67" gradientTransform="translate(-1242.1 1418.36) rotate(11.34)" xlink:href="#linear-gradient-7"/><linearGradient id="linear-gradient-59" x1="-820.81" y1="401.64" x2="-872.11" y2="462.61" gradientTransform="matrix(-1, 0, 0, 1, -651.84, 0)" xlink:href="#linear-gradient-6"/><linearGradient id="linear-gradient-60" x1="1495.32" y1="468.27" x2="1481.79" y2="518.31" gradientTransform="translate(-1206.27)" xlink:href="#linear-gradient-12"/><linearGradient id="linear-gradient-61" x1="5972.22" y1="551.43" x2="5964.22" y2="293.43" gradientTransform="translate(-5764.13 547.57) rotate(-7.16)" xlink:href="#linear-gradient-28"/><linearGradient id="linear-gradient-62" x1="-8980.16" y1="1826.47" x2="-8976.79" y2="1802.5" gradientTransform="matrix(-0.99, 0.15, 0.15, 0.99, -8894.57, 10.59)" xlink:href="#linear-gradient-12"/><linearGradient id="linear-gradient-63" x1="-9785.76" y1="1363.31" x2="-9754.19" y2="1399.61" gradientTransform="matrix(-0.96, -0.28, -0.28, 0.96, -8753.93, -3594.69)" xlink:href="#linear-gradient-12"/><linearGradient id="linear-gradient-64" x1="-9730.12" y1="1311.16" x2="-9771.56" y2="1360.4" gradientTransform="matrix(-0.96, -0.28, -0.28, 0.96, -8753.93, -3594.69)" xlink:href="#linear-gradient-6"/><linearGradient id="linear-gradient-65" x1="-9777.87" y1="1356.45" x2="-9746.3" y2="1392.75" gradientTransform="matrix(-0.96, -0.28, -0.28, 0.96, -8753.93, -3594.69)" xlink:href="#linear-gradient-12"/><linearGradient id="linear-gradient-66" x1="5861.06" y1="750.33" x2="5936.38" y2="617.37" gradientTransform="translate(-5665.85 45.02) rotate(-0.54)" xlink:href="#linear-gradient-12"/><linearGradient id="linear-gradient-67" x1="5877.48" y1="703.32" x2="5899.5" y2="703.32" gradientTransform="translate(-5665.85 45.02) rotate(-0.54)" xlink:href="#linear-gradient-6"/><linearGradient id="linear-gradient-68" x1="5946.42" y1="651.97" x2="5833.77" y2="687.99" gradientTransform="translate(-5665.85 45.02) rotate(-0.54)" xlink:href="#linear-gradient-12"/><linearGradient id="linear-gradient-69" x1="5897.89" y1="707.29" x2="5924.14" y2="707.29" gradientTransform="translate(-5665.85 45.02) rotate(-0.54)" xlink:href="#linear-gradient-6"/><linearGradient id="linear-gradient-70" x1="5934.25" y1="531.02" x2="5871.37" y2="671.18" gradientTransform="translate(-5665.85 45.02) rotate(-0.54)" xlink:href="#linear-gradient-6"/><linearGradient id="linear-gradient-71" x1="1469.32" y1="487.62" x2="1527.24" y2="487.62" gradientTransform="translate(-1206.27)" xlink:href="#linear-gradient-12"/><linearGradient id="linear-gradient-72" x1="-9992.59" y1="-150.33" x2="-10002.39" y2="-139.98" gradientTransform="matrix(-0.99, -0.16, -0.21, 1.26, -9597.03, -968.04)" xlink:href="#linear-gradient-6"/><linearGradient id="linear-gradient-73" x1="1510.26" y1="473.56" x2="1503.14" y2="499.93" gradientTransform="translate(-1206.27)" xlink:href="#linear-gradient-12"/><linearGradient id="linear-gradient-74" x1="732.84" y1="47.33" x2="807.8" y2="272.21" gradientUnits="userSpaceOnUse"><stop offset="0" stop-color="#9f5699"/><stop offset="1" stop-color="#202278"/></linearGradient><linearGradient id="linear-gradient-75" x1="185.67" y1="116.25" x2="260.63" y2="341.13" gradientUnits="userSpaceOnUse"><stop offset="0" stop-color="#f9c200"/><stop offset="1" stop-color="#9b1e5f"/></linearGradient><linearGradient id="linear-gradient-76" x1="906.53" y1="249.58" x2="981.49" y2="474.46" gradientUnits="userSpaceOnUse"><stop offset="0" stop-color="#2c50ff"/><stop offset="1" stop-color="#1a1b80"/></linearGradient><linearGradient id="linear-gradient-77" x1="123.32" y1="317.02" x2="198.28" y2="541.9" xlink:href="#linear-gradient-76"/><linearGradient id="linear-gradient-78" x1="1009" y1="379.45" x2="1083.96" y2="604.32" xlink:href="#linear-gradient-74"/><linearGradient id="linear-gradient-79" x1="994.34" y1="166.26" x2="1055.52" y2="349.81" xlink:href="#linear-gradient-75"/></defs><g class="cls-1"><g id="Illustration"><path class="cls-2" d="M1079.71,434.19c-17.24-17.49-37.62-34.56-42.94-58.31-9.2-41.11,30.14-76.16,43-116.3A97.68,97.68,0,0,0,1067.64,176c-16.46-24.22-44.45-40.57-74-43.23-50.88-4.57-100.68,29-150.8,19.3-40.13-7.79-71.85-42.16-112.59-45.84-47.94-4.34-87.72,34.44-133.5,49-54.75,17.46-114.12-.79-168-20.81S318.3,92.07,261.55,101.66C198.38,112.33,145.42,166.26,137,228.52c-8.37,61.71,61.85,111.24,2.07,185.33-18.68,23.15-31.1,55.38-22.84,83.77,8,27.57,42.16,45,42.41,73.69C158.81,594,137,612,135.27,634.53,133.76,653.91,148,671.82,165.46,681s37.76,11.43,57.47,13.51h0a3.91,3.91,0,0,0-.79,4.28,4.44,4.44,0,0,0,3.76,2.58c96.42,7.88,193.4,6,290.15,4.09l471.63-9.23c16.16-.32,32.71-.71,47.76-6.46S1064,671.7,1066.29,656c3.9-26.67-24.55-49.82-21.92-76.65,3.35-34.25,52.58-47.47,62-80.63C1112.94,475.3,1097,451.69,1079.71,434.19Z"/><g class="cls-3"><path class="cls-4" d="M1112.15,390.11c-20.83-24.7-50.06-43.59-65.29-71.57-23.26-42.73-8.17-95.36-24.09-140.88-13.64-39-49.56-69.1-90.44-84.9S846,74.05,801.78,76.56c-91.67,5.2-181.7,33.24-258.13,80.38-37.64,23.21-72,50.93-111.07,72s-84.73,35.47-129.31,28.43-81.84-34.1-122.65-52a187.25,187.25,0,0,0-51.76-14.54c-39.08-4.77-74.06,23-75.28,59.47A154.48,154.48,0,0,0,78.3,339.45c21.77,33.45,55.71,58.41,82.29,88.74s46.17,71.3,31.79,108c-12.27,31.31-47.59,55.26-46.6,88.56,1,34.84,40.91,56.49,76.66,67.37,105.28,32.06,222.1,30.57,326.38-4.16,60-20,117.62-50.9,181.3-53.23,66.9-2.46,130.71,27.2,197.57,30.48,73.16,3.59,148.75-28,189.08-84.59S1157.23,443.57,1112.15,390.11Z"/></g><path class="cls-5" d="M598.94,697s-71-97.19-59.42-189.07,69.12-80.92,94.74-26.59,48.65,46.88,33.43-4.2-34.3-84.33-2.76-135.18S699.74,269.48,682,224.11s-40-109.66,30.54-132.6,140.77,47.54,124.32,139.77-26.32,102.29-3.67,136.45,13.21,48.2,10,70.44,31.4,27.45,30.66-3.88S829.11,329,859.16,294.55s88.93-34.86,104,44.89S929.93,455,932.34,483.87s28.35-14.89,50.95,14.51-7.83,52.5-30.22,68.44-56.16,44.49-24,65.23,62.55.89,42.87,64.92Z"/><path class="cls-6" d="M744.81,158a36.55,36.55,0,0,1,6.33,4.83,51.48,51.48,0,0,1,5.48,5.93,67.37,67.37,0,0,1,8.65,14.07,94.69,94.69,0,0,1,8.08,32.78c.15,1.41.19,2.83.25,4.25s.13,2.84.1,4.26l0,4.25-.19,4.25-.11,2.12-.19,2.11-.38,4.23c-.39,2.78-.67,5.6-1.16,8.37s-.93,5.55-1.54,8.28l-.87,4.11-.9,4-3.62,15.88c-4.8,21.17-9.42,42.32-13.06,63.59s-6,42.73-5.42,64c.12,5.3.45,10.58,1.07,15.79A128.46,128.46,0,0,0,750,440.47a106.62,106.62,0,0,0,4.59,14.69,118.41,118.41,0,0,1,5,16.38,286.54,286.54,0,0,1,4.95,33c1.06,11,1.88,21.93,2.53,32.86,1.38,21.84,2.56,43.61,5.45,65.08.36,2.69.75,5.36,1.21,8s.94,5.32,1.44,8,1.14,5.25,1.7,7.89c.31,1.31.67,2.6,1,3.9s.66,2.6,1.08,3.87l1.19,3.83c.39,1.28.9,2.51,1.35,3.76.86,2.54,2,4.93,3,7.38a67.88,67.88,0,0,0,8.3,13.36l-.8.87a68.82,68.82,0,0,1-9.49-13,105.18,105.18,0,0,1-6.68-15,201,201,0,0,1-8.31-31.9c-4.08-21.65-6-43.58-8.21-65.3-1.12-10.87-2.11-21.71-3.48-32.45a272.32,272.32,0,0,0-5.59-31.53,112,112,0,0,0-4.77-14.61,116.27,116.27,0,0,1-5.38-16.25,137.3,137.3,0,0,1-3.18-16.75c-.77-5.63-1.21-11.27-1.44-16.9-.86-22.56,1.71-44.76,5.16-66.55s8.3-43.22,13.64-64.39q2-7.93,4.1-15.84l1.05-3.94,1-3.85c.68-2.55,1.2-5.14,1.76-7.72s1-5.19,1.47-7.79l.55-3.91c.2-1.31.37-2.62.49-3.93a131.92,131.92,0,0,0,.88-15.76,96.9,96.9,0,0,0-1.21-15.7,90.49,90.49,0,0,0-3.72-15.23c-.88-2.45-1.84-4.88-3-7.23A64.63,64.63,0,0,0,754,171a51.55,51.55,0,0,0-9.77-11.91Z"/><path class="cls-6" d="M593.76,487.24c2.12,17.2,5.12,34.26,8.8,51.08q2.78,12.61,6.14,25c.53,2.08,1.17,4.12,1.74,6.18s1.21,4.11,1.84,6.16c1.19,4.11,2.55,8.15,3.87,12.21s2.8,8.06,4.35,12,3.08,7.92,4.67,11.85c3.34,7.79,6.86,15.48,10.77,22.94s8.22,14.66,12.81,21.67a232.63,232.63,0,0,0,15.18,19.93l-.76.9a143.41,143.41,0,0,1-17.31-18.33,200.38,200.38,0,0,1-14.33-21.28,248,248,0,0,1-11.59-23.18c-1.66-4-3.38-8-4.89-12.06s-2.93-8.18-4.35-12.29-2.66-8.29-3.85-12.48c-.62-2.08-1.19-4.19-1.73-6.3s-1.14-4.2-1.63-6.33c-2.15-8.45-3.91-17-5.43-25.59a344.36,344.36,0,0,1-5.43-52.06Z"/><ellipse class="cls-7" cx="600" cy="440.14" rx="258.98" ry="279.54" transform="translate(133.97 1020.26) rotate(-87.49)"/><ellipse class="cls-8" cx="584.87" cy="421.45" rx="219.36" ry="207.22"/><g class="cls-9"><path class="cls-10" d="M671.62,441.39c0,22.85-.86,45.71-2.64,68.49s-4.6,45.51-8.65,68c-2,11.25-4.41,22.45-7.23,33.54A326.15,326.15,0,0,1,643,644.26c-4,10.72-8.71,21.29-15.06,31a62,62,0,0,1-11.31,13.17,32.51,32.51,0,0,1-7.41,4.78,22.33,22.33,0,0,1-8.67,2,21.83,21.83,0,0,1-8.76-1.6,30.38,30.38,0,0,1-7.58-4.52,58.66,58.66,0,0,1-11.56-13c-6.46-9.59-11.2-20.14-15.27-30.84a314.74,314.74,0,0,1-10.2-32.79c-2.85-11.08-5.24-22.27-7.3-33.52-4.12-22.5-6.92-45.21-8.82-68s-2.84-45.64-3-68.5c-.06-11.42.26-22.85.67-34.27s1.08-22.83,1.92-34.22c1.71-22.79,4.25-45.52,8-68.07,1.89-11.27,4.09-22.5,6.74-33.62A323,323,0,0,1,555,239.33c3.87-10.76,8.37-21.39,14.64-31.06a56,56,0,0,1,11.3-13,29,29,0,0,1,7.47-4.48,21.27,21.27,0,0,1,8.6-1.52,22.83,22.83,0,0,1,8.49,2,33.08,33.08,0,0,1,7.38,4.6,63,63,0,0,1,11.54,12.81C631,218.08,636,228.5,640.26,239.1a313.59,313.59,0,0,1,10.85,32.55c3.06,11,5.65,22.17,7.89,33.38a649.57,649.57,0,0,1,9.59,67.87C670.59,395.68,671.56,418.53,671.62,441.39Zm-3.79,0c0-22.75-.81-45.51-2.7-68.19a657.42,657.42,0,0,0-8.85-67.65c-2.1-11.18-4.54-22.29-7.44-33.28a311,311,0,0,0-10.38-32.46c-4.13-10.56-8.92-20.94-15.27-30.31a61.5,61.5,0,0,0-11.12-12.67,31.46,31.46,0,0,0-7-4.51,21,21,0,0,0-8-2,19.92,19.92,0,0,0-8.1,1.53,27.68,27.68,0,0,0-7.1,4.37A54.9,54.9,0,0,0,571,209.1c-6.05,9.57-10.39,20.15-14.09,30.87a320.44,320.44,0,0,0-9.09,32.84c-2.5,11.09-4.56,22.29-6.3,33.53-6.9,45-9.16,90.62-9,136.12q-.11,34.13,2.36,68.2c1.69,22.69,4.29,45.32,8.19,67.73,2,11.2,4.23,22.35,7,33.38a314.28,314.28,0,0,0,9.83,32.59c3.94,10.62,8.54,21.07,14.75,30.47a56.66,56.66,0,0,0,11,12.58,28.2,28.2,0,0,0,7,4.27,19.34,19.34,0,0,0,7.93,1.51,20.12,20.12,0,0,0,7.85-1.93,29.64,29.64,0,0,0,6.88-4.52A59.84,59.84,0,0,0,626,673.94c6.1-9.48,10.64-20,14.53-30.58a320.91,320.91,0,0,0,9.72-32.63c2.7-11,5-22.19,6.89-33.39,3.87-22.42,6.44-45.05,8.15-67.74S667.84,464.15,667.83,441.39Z"/><path class="cls-10" d="M786.87,441.39A333.35,333.35,0,0,1,775,528.66a281,281,0,0,1-36.55,80c-16.4,24.4-37.28,46.05-62.25,61.76a165.49,165.49,0,0,1-40.06,18.3,150.14,150.14,0,0,1-87.1,0A165.25,165.25,0,0,1,509,670.49c-25-15.68-45.93-37.32-62.36-61.72a281.34,281.34,0,0,1-36.66-80,315.92,315.92,0,0,1-8.88-43.27,324.66,324.66,0,0,1,0-88.14A315.42,315.42,0,0,1,410,354.07a281.18,281.18,0,0,1,36.72-80c16.44-24.37,37.36-46,62.35-61.63a165.87,165.87,0,0,1,40.06-18.19,148.83,148.83,0,0,1,86.94,0,166.18,166.18,0,0,1,40,18.23c25,15.66,45.83,37.28,62.24,61.66A280.75,280.75,0,0,1,775,354.14,332.74,332.74,0,0,1,786.87,441.39Zm-4.33,0a329.34,329.34,0,0,0-11.31-86.21c-7.7-28-19.29-55.06-35.25-79.39a228,228,0,0,0-27.2-34,190.31,190.31,0,0,0-33.66-27.62,162.29,162.29,0,0,0-39.49-18.27,144.78,144.78,0,0,0-86,0,162.49,162.49,0,0,0-39.45,18.3,190.07,190.07,0,0,0-33.6,27.65,227.45,227.45,0,0,0-27.14,34c-15.93,24.33-27.5,51.37-35.15,79.36a320.16,320.16,0,0,0-8.45,42.7,332.41,332.41,0,0,0,0,86.87,319.76,319.76,0,0,0,8.47,42.69c7.68,28,19.26,55,35.21,79.3a227.17,227.17,0,0,0,27.14,34,188.86,188.86,0,0,0,33.59,27.6,163.17,163.17,0,0,0,39.42,18.23,143.65,143.65,0,0,0,85.83,0A163.42,163.42,0,0,0,675,668.47a189.88,189.88,0,0,0,33.64-27.58,227.62,227.62,0,0,0,27.21-34c16-24.3,27.59-51.33,35.31-79.33A329.14,329.14,0,0,0,782.54,441.39Z"/><path class="cls-10" d="M366.24,341l58.27-.53,58.26-.3C502.19,340,521.61,340,541,340l58.27-.09,116.52.27,58.26.32,58.27.57a.2.2,0,0,1,.19.19.19.19,0,0,1-.19.19l-58.27.57-58.26.33-116.52.26L541,342.52c-19.42,0-38.84,0-58.26-.16l-58.26-.3-58.27-.52a.29.29,0,0,1-.28-.29A.28.28,0,0,1,366.24,341Z"/><path class="cls-10" d="M433.84,243.38c13.78-.24,27.57-.35,41.36-.53l41.37-.29c13.78-.13,27.57-.12,41.36-.16l41.37-.08,41.36.1c13.79.06,27.58,0,41.37.16l41.36.33c13.79.19,27.58.3,41.37.57a.18.18,0,0,1,.18.19.19.19,0,0,1-.18.19c-13.79.26-27.58.37-41.37.57l-41.36.32c-13.79.14-27.58.11-41.37.17l-41.36.1-41.37-.09c-13.79,0-27.58,0-41.36-.15l-41.37-.3c-13.79-.18-27.58-.28-41.36-.53a.28.28,0,0,1-.28-.29A.28.28,0,0,1,433.84,243.38Z"/><path class="cls-10" d="M346,438.55l63.32-.52,63.33-.3,126.65-.24,126.65.26,63.32.33,63.32.57a.18.18,0,0,1,.19.19.19.19,0,0,1-.19.19l-63.32.57-63.32.32-126.65.27L472.65,440l-63.33-.3L346,439.12a.29.29,0,0,1-.29-.29A.3.3,0,0,1,346,438.55Z"/><path class="cls-10" d="M366.24,536.14l58.27-.53,58.26-.3c19.42-.13,38.84-.11,58.26-.15l58.27-.09,116.52.27,58.26.32,58.27.57a.2.2,0,0,1,.19.19.19.19,0,0,1-.19.19l-58.27.57-58.26.33-116.52.26L541,537.69c-19.42,0-38.84,0-58.26-.16l-58.26-.3-58.27-.52a.29.29,0,0,1-.28-.29A.28.28,0,0,1,366.24,536.14Z"/><path class="cls-10" d="M773.09,635H442.17a1,1,0,0,1,0-2H773.09a1,1,0,0,1,0,2Z"/></g><path class="cls-11" d="M773.75,244.33s-6.65.35-7.47,14c0,0,15.43,13.83,36.28,17.13,1.57.24-2.18-10.69-2.75-12.17C797.13,256.3,788.67,251.76,773.75,244.33Z"/><path class="cls-12" d="M698.79,228.23h14.05s43.11-47.61,71.38-52.42c0,0,19.69,25.13-1,72.07a6.85,6.85,0,0,1-9.82,3.23,5.61,5.61,0,0,1-2.24-2.67l1.67-40.08S736,240.52,729.62,246.73,690.74,249.15,698.79,228.23Z"/><path class="cls-13" d="M834.59,328.19a52.9,52.9,0,0,0-28.81-12.6l-4.58,2.8a49.77,49.77,0,0,0,8.26,8.86c4.9,2.84,12.47,6.7,18.74,7.53C834.31,335.6,835.21,331.91,834.59,328.19Z"/><path class="cls-14" d="M799.81,263.34c-3.63,1.18-5.22,6.31-14.42,2.92a82,82,0,0,1-18.93-10c-.07.66-.14,1.35-.18,2.09,0,0,16.27,15.48,37.12,18.77a2.07,2.07,0,0,0,2.24-2.8A52.26,52.26,0,0,0,799.81,263.34Z"/><path class="cls-15" d="M839,332.6a48.51,48.51,0,0,0-4.43-4.41c.62,3.72-.28,7.41-6.39,6.59-6.27-.83-13.84-4.69-18.74-7.53,6.14,5.24,15.49,10.8,27.29,10.47A3.09,3.09,0,0,0,839,332.6Z"/><path class="cls-16" d="M699.31,238.39l65.77.72s37.56,31.07,44.38,78.46c0,0,1.13,3.49-5.66,4.08,0,0-22.71-14.83-37.52-41-18.16-32.16-47.37-20.68-47.37-20.68-35.43,12.08-47.56-5.86-47.86-10.1Z"/><path class="cls-17" d="M700.86,185.41s7.08,35.48,41.77,49.52L755,233.48l2.91,4.64-28.95.92a79.18,79.18,0,0,1-37.86-36.5C690.65,201.65,683.43,186.75,700.86,185.41Z"/><path class="cls-18" d="M704.65,237.81s-8-21.89-9.78-43.15a92.28,92.28,0,0,1,9.57-7.25,2.65,2.65,0,0,0,1-3.45c-2.7-5.61-19.07-27.63-20.3-27.94-6.67-1.66-34-14.66-53.26,11.68-8.26,11.3,1.64,46.09,39.13,82.12l1.24.24a19.06,19.06,0,0,0,12.35-1.81Z"/><path class="cls-19" d="M673.63,199.45s22.37,26.49,51,30.36c0,0,7.39-6.73,12.89-4.33s13,13,13,13H713.8s-34.73-1.23-52.08-22.28C663.12,208.86,667.3,204.46,673.63,199.45Z"/><path class="cls-20" d="M660.57,137.45l-4.89,16.32a1.79,1.79,0,0,0,.7,2,18.23,18.23,0,0,0,17,1.7,2.65,2.65,0,0,0,1.72-2.28L676.22,141Z"/><path class="cls-21" d="M689.24,124.22s-2.41,16.93-8.91,22.13-19.17,1.29-23.45-11.47l8.53-21.82Z"/><path class="cls-22" d="M664.45,127.18a.84.84,0,0,0,1.09-.67,21.93,21.93,0,0,1,2-6.76s-.62-2.22,5.62,1.13,15.59,8.28,21.1,5.35,10.81-17.26-3.39-14.59a.83.83,0,0,1-1-.88c.17-2.36-.06-7.81-5.58-9.55-5.15-1.64-8,.69-9.14,2.1a.84.84,0,0,1-1.31,0c-1.54-2-5.74-6.32-11.92-3.59-5.08,2.24-5.88,5.37-5.79,7.33a.83.83,0,0,1-1.19.79c-1.56-.71-4.07-1.09-6.47,1.92-3.32,4.16,1.43,7.77,2.85,8.71a.85.85,0,0,1,.38.69c0,2.17.35,11.6,5.08,16.93a.84.84,0,0,0,1.4-.25l3.64-8.67a.85.85,0,0,1,1-.48Z"/><path class="cls-23" d="M664.53,128.94s-2.23-9-5.61-6.11.89,9.41,4.75,10.64Z"/><path class="cls-24" d="M748.67,240.56l16.49-55a5.64,5.64,0,0,1,5-4l22.27-1.53a3.16,3.16,0,0,1,3.19,4.2l-18.43,52.52a4.62,4.62,0,0,1-3.9,3.06l-21.92,2.44Z"/><path class="cls-25" d="M751.37,242.27h-.11l-46.71-2.37a2.09,2.09,0,1,1,.21-4.18l46.71,2.36a2.1,2.1,0,0,1-.1,4.19Z"/><path class="cls-26" d="M694.87,195.08h0a.42.42,0,0,1-.42-.42c0-9.76-3.73-22.71-3.77-22.84a.41.41,0,0,1,.29-.51.4.4,0,0,1,.51.28c0,.13,3.84,13.19,3.81,23.07A.42.42,0,0,1,694.87,195.08Z"/><path class="cls-27" d="M673.63,199.87a.39.39,0,0,1-.33-.16c-.11-.13-10.33-13.12-13.84-22a.41.41,0,0,1,.23-.54.42.42,0,0,1,.55.23c3.47,8.8,13.61,21.69,13.71,21.82a.41.41,0,0,1-.06.59A.43.43,0,0,1,673.63,199.87Z"/><path class="cls-28" d="M659.27,219.74l-.32-.13c-14.79-6.34-23.93-24-24-24.18a.42.42,0,0,1,.18-.56.42.42,0,0,1,.56.18c.09.18,9,17.33,23.3,23.65l1.5-2.12a.42.42,0,1,1,.69.49Z"/><path class="cls-29" d="M402.33,508c-21.57-.24-39.83-17.4-41.56-39.08l-3.94-49.26a41.68,41.68,0,0,1,10.59-31.57,38.1,38.1,0,0,1,28.26-12.39l384.53-.7c12,0,22.56,4.81,29.7,13.54,7.3,8.94,10.05,21.09,7.56,33.34l-10.53,51.66c-4.37,21.47-25.29,38.29-47.6,38.29Z"/><path class="cls-30" d="M780.23,385l-384.53.7c-17.44,0-30.34,15.16-28.9,33.17l3.94,49.25c1.32,16.51,15.48,29.7,31.7,29.88L759,501.8c17.62.19,34.67-13,38.18-30.29l10.53-51.65C811.52,401,799.29,384.93,780.23,385Z"/><path class="cls-31" d="M485,420.47l-17.75,54.22h-.07a7.53,7.53,0,0,1-5.24,5.1h-.07c-.07,0-.21.07-.28.07h-.14c-.07,0-.14.07-.21.07h-1.67c-.07,0-.14-.07-.21-.07h-.14c-.07,0-.21-.07-.28-.07h-.07a7.75,7.75,0,0,1-5.31-5.1l-11.18-34.17-11.18,34.17a7.53,7.53,0,0,1-5.24,5.1h-.07c-.14,0-.21.07-.28.07h-.14c-.07,0-.14.07-.21.07h-1.68c-.07,0-.14-.07-.21-.07h-.14c-.13,0-.2-.07-.27-.07h-.07a7.6,7.6,0,0,1-5.31-5.1l-17.75-54.22v-.14a8.35,8.35,0,0,1-.42-2.59,7.64,7.64,0,0,1,4.82-7.26,5.88,5.88,0,0,1,2.17-.35,7.29,7.29,0,0,1,6.84,5.38c.07.14,6.15,18.65,11.18,34,5-15.37,11.11-33.88,11.11-34a7.81,7.81,0,0,1,4.33-4.89l.07-.07c.07,0,.14-.07.21-.07h.07c.07,0,.07-.07.14-.07h.14a.26.26,0,0,1,.21-.07l.07-.07c.14,0,.21,0,.28-.07h.07c.14,0,.21,0,.28-.07h.42c.14,0,.21,0,.28-.07h.63a.26.26,0,0,0,.21.07h.42a.63.63,0,0,0,.35.07.53.53,0,0,0,.28.07c.07,0,.07,0,.07.07s.21,0,.28.07h.13a.29.29,0,0,0,.15.07h.06c.07,0,.14.07.21.07l.07.07a7.8,7.8,0,0,1,4.34,4.89c0,.14,6.07,18.65,11.11,34,5-15.37,11.1-33.88,11.1-34a7.45,7.45,0,0,1,6.92-5.38,5.88,5.88,0,0,1,2.17.35,7.64,7.64,0,0,1,4.82,7.26,8.35,8.35,0,0,1-.42,2.59Z"/><path class="cls-31" d="M574.49,420.47l-17.75,54.22h-.07a7.53,7.53,0,0,1-5.24,5.1h-.07c-.07,0-.21.07-.28.07h-.14c-.07,0-.14.07-.21.07h-1.67c-.07,0-.14-.07-.21-.07h-.14c-.07,0-.21-.07-.28-.07h-.07a7.75,7.75,0,0,1-5.31-5.1l-11.18-34.17-11.18,34.17a7.54,7.54,0,0,1-5.24,5.1h-.07c-.14,0-.21.07-.28.07H515c-.07,0-.14.07-.21.07h-1.68c-.07,0-.14-.07-.21-.07h-.14c-.14,0-.21-.07-.28-.07h-.07a7.64,7.64,0,0,1-5.31-5.1l-17.74-54.22v-.14a8.35,8.35,0,0,1-.42-2.59,7.64,7.64,0,0,1,4.82-7.26,5.88,5.88,0,0,1,2.17-.35,7.29,7.29,0,0,1,6.84,5.38c.07.14,6.15,18.65,11.18,34,5-15.37,11.11-33.88,11.11-34a7.81,7.81,0,0,1,4.33-4.89l.07-.07c.07,0,.14-.07.21-.07h.07c.07,0,.07-.07.14-.07H530a.26.26,0,0,1,.21-.07l.07-.07c.14,0,.21,0,.28-.07h.07c.14,0,.21,0,.28-.07h.42c.14,0,.21,0,.28-.07h.63a.26.26,0,0,0,.21.07h.42a.63.63,0,0,0,.35.07.53.53,0,0,0,.28.07c.07,0,.07,0,.07.07s.2,0,.27.07H534a.24.24,0,0,0,.14.07h.07c.07,0,.14.07.21.07l.07.07a7.8,7.8,0,0,1,4.34,4.89c0,.14,6.07,18.65,11.1,34,5-15.37,11.11-33.88,11.11-34a7.45,7.45,0,0,1,6.92-5.38,5.88,5.88,0,0,1,2.17.35,7.64,7.64,0,0,1,4.82,7.26,8.35,8.35,0,0,1-.42,2.59Z"/><path class="cls-31" d="M664,420.47l-17.75,54.22h-.07a7.53,7.53,0,0,1-5.24,5.1h-.07c-.07,0-.21.07-.28.07h-.14c-.07,0-.14.07-.21.07h-1.67c-.07,0-.14-.07-.21-.07h-.14c-.07,0-.21-.07-.28-.07h-.07a7.75,7.75,0,0,1-5.31-5.1l-11.18-34.17L610.2,474.69a7.54,7.54,0,0,1-5.24,5.1h-.07c-.14,0-.21.07-.28.07h-.14c-.07,0-.14.07-.21.07h-1.68c-.07,0-.14-.07-.21-.07h-.14c-.14,0-.21-.07-.28-.07h-.07a7.64,7.64,0,0,1-5.31-5.1l-17.74-54.22v-.14a8.35,8.35,0,0,1-.42-2.59,7.63,7.63,0,0,1,4.82-7.26,5.86,5.86,0,0,1,2.16-.35,7.3,7.3,0,0,1,6.85,5.38c.07.14,6.15,18.65,11.18,34,5-15.37,11.11-33.88,11.11-34a7.81,7.81,0,0,1,4.33-4.89l.07-.07c.07,0,.14-.07.21-.07h.07c.07,0,.07-.07.14-.07h.14a.26.26,0,0,1,.21-.07l.07-.07c.14,0,.21,0,.28-.07h.07c.14,0,.21,0,.28-.07h.42c.14,0,.21,0,.28-.07h.63a.26.26,0,0,0,.21.07h.42a.61.61,0,0,0,.34.07.57.57,0,0,0,.28.07c.07,0,.07,0,.07.07s.21,0,.28.07h.14a.24.24,0,0,0,.14.07h.07c.07,0,.14.07.21.07l.07.07a7.76,7.76,0,0,1,4.33,4.89c0,.14,6.08,18.65,11.11,34,5-15.37,11.11-33.88,11.11-34a7.45,7.45,0,0,1,6.92-5.38,5.88,5.88,0,0,1,2.17.35,7.64,7.64,0,0,1,4.82,7.26,8.35,8.35,0,0,1-.42,2.59Z"/><path class="cls-31" d="M683,481a3,3,0,0,1-3,3h0a3,3,0,0,1-3-3V398a3,3,0,0,1,3-3h0a3,3,0,0,1,3,3Z"/><path class="cls-31" d="M841.64,550.08l-44.75-54.6a1.62,1.62,0,0,1-.28-1.54,1.6,1.6,0,0,1,1.15-1.06l39.53-9.49a4.1,4.1,0,0,0,1.23-7.46L725.75,404.65a4.11,4.11,0,0,0-6.25,4.15L743,550.38a4.1,4.1,0,0,0,7.58,1.43l21.88-36.72a1.61,1.61,0,0,1,1.29-.79,1.64,1.64,0,0,1,1.38.62l41.67,53.45a7.37,7.37,0,0,0,10,1.57l13.37-9.1a7.37,7.37,0,0,0,1.56-10.76Z"/><path class="cls-32" d="M338.22,638.24c-4.66-19.51-2.47-38.63,4.8-53.49a56.93,56.93,0,0,0,3.16-42.65c-.48-1.48-.91-3-1.28-4.54-5.61-23.47,4.23-45.92,22-50.16s36.66,11.35,42.26,34.82a56.33,56.33,0,0,1,1.57,14.11,57.19,57.19,0,0,0,14.58,39.6,83.83,83.83,0,0,1,19.09,37c5.21,21.81,1.86,43.14-7.6,58.58a56.06,56.06,0,0,0-7.32,19c-2.07,11.18-9.1,20.1-19.06,22.47-10.74,2.57-21.88-3.19-28.72-13.64a59.9,59.9,0,0,0-14.54-15.21C353.71,674.17,342.93,658,338.22,638.24Z"/><path class="cls-33" d="M366.61,513.85c1.39,16.06,3.29,32.06,5.36,48,.52,4,1.1,8,1.67,12l.85,6,.9,6c.61,4,1.18,8,1.84,11.94l2,11.93c1.43,7.93,2.78,15.88,4.35,23.78.78,4,1.49,7.93,2.35,11.87l2.52,11.82c3.53,15.73,7.45,31.38,12.16,46.8l.67-.19-3.09-11.68-.77-2.91-.71-2.94-1.39-5.87-1.41-5.86c-.47-2-.87-3.93-1.31-5.9-.86-3.93-1.74-7.85-2.57-11.79-3.21-15.77-6.21-31.58-8.89-47.46-1.28-7.94-2.62-15.88-3.84-23.83l-.94-6-.88-6c-.59-4-1.18-8-1.73-12q-1.75-11.94-3.33-23.92c-1.09-8-2.1-16-3.09-24Z"/><path class="cls-34" d="M343.56,688.9c-6.6-9.09-9.59-19.45-9-28.69A31.91,31.91,0,0,0,327,637.49c-.57-.66-1.11-1.35-1.64-2.07-7.94-10.93-7.7-24.65.54-30.64s21.36-2,29.3,9a31.29,31.29,0,0,1,3.85,7A32.08,32.08,0,0,0,375.07,638a47.23,47.23,0,0,1,17.81,15c7.38,10.16,10.24,21.91,8.69,31.91a31.44,31.44,0,0,0,.31,11.4c1.34,6.22-.37,12.34-5,15.7-5,3.63-12,3-17.76-.9a33.47,33.47,0,0,0-10.78-4.74C359.29,704.15,350.24,698.08,343.56,688.9Z"/><path class="cls-33" d="M331.43,618.51c4.18,8,8.6,15.87,13.11,23.69,1.13,1.95,2.29,3.89,3.44,5.83l1.73,2.91,1.75,2.9c1.17,1.92,2.32,3.87,3.52,5.78l3.59,5.74c2.44,3.79,4.85,7.61,7.37,11.36,1.25,1.88,2.47,3.78,3.76,5.63l3.85,5.57c5.21,7.38,10.6,14.63,16.35,21.59l.3-.24-4.1-5.38-1-1.34-1-1.36-2-2.74-2-2.73c-.67-.91-1.3-1.84-2-2.76-1.28-1.85-2.59-3.69-3.86-5.55-5.05-7.46-10-15-14.8-22.63-2.37-3.83-4.78-7.65-7.12-11.5l-1.77-2.88-1.74-2.9c-1.16-1.93-2.32-3.86-3.46-5.8q-3.48-5.81-6.87-11.66t-6.75-11.72Z"/><rect class="cls-35" x="987.56" y="639.19" width="6.56" height="70.93"/><path class="cls-36" d="M1019.56,711.49H962.11v-1.8a2.47,2.47,0,0,1,2.47-2.47h52.32a2.66,2.66,0,0,1,2.66,2.66Z"/><rect class="cls-37" x="953.66" y="622.3" width="76.76" height="21.77" rx="7.5"/><path class="cls-38" d="M932.7,688.58s-21.21,9.14-20,18.69c0,0,21.92-4.2,25.84-10.46s1.76-9.9,1.76-9.9Z"/><path class="cls-39" d="M937.89,678.14l1.08,9.31a3.09,3.09,0,0,1-2,3.27,8.17,8.17,0,0,1-2.69.41,3.58,3.58,0,0,1-3.48-2.61L928.76,681Z"/><path class="cls-40" d="M984.21,606.78s-39-1.8-58.41,9.51,1,65.64,1,65.64,5.07,1.09,12.37-2.81c0,0-10.42-39.77,7.67-46.68,20.35-7.78,41.39-5.89,41.39-5.89L984.32,608Z"/><path class="cls-41" d="M917,703.08c4.43-1,17.58-6.42,19.58-6.35s4.83,3.07,4.83,3.07a5.29,5.29,0,0,1-.94,4c-3.39,2.64-10.69,7.49-19.18,8-6.24.39-10-2.1-12.14-4.51A17.4,17.4,0,0,1,917,703.08Z"/><path class="cls-42" d="M921.26,711.81c8.49-.54,15.79-5.39,19.18-8-1,1.59-2.81,3.5-6.26,5.45-8.58,4.85-22.75,4.14-25.56,3-2.26-.87-1.56-3,.5-5C911.27,709.71,915,712.2,921.26,711.81Z"/><path class="cls-43" d="M946,694.93c-.29,1.09-3.39,4.39-5.19,6.23a3.51,3.51,0,0,1-3.28,1,8.77,8.77,0,0,1-2.35-.82,2.3,2.3,0,0,1-.89-3.12l4.54-8.26Z"/><path class="cls-44" d="M1022.86,603.51s3.41,24.15-6.44,29.09-31.43,8.17-38.87,20.69-20.79,37.11-32.94,44.18c0,0-6.94-2.26-9-5.67,0,0,14.43-37.93,20.44-47.15,5.22-8,12.84-19.48,23.67-24.45,3.09-1.43,3.34-4.71,2.79-8.08l-1-6.13Z"/><path class="cls-45" d="M931.64,576.13c13.79,3.94,20-34.89,19.92-35.84L972.71,565s-12.6,22.18-31.64,24.54a22.39,22.39,0,0,1-12.35-1.81A19.84,19.84,0,0,0,931.64,576.13Z"/><path class="cls-46" d="M906.08,563.42c6-2.47,11.12,2.46,11.12,2.46,6,6.1,10.68,9.18,14.44,10.25a19.84,19.84,0,0,1-2.92,11.63c-7.43-3.4-11.77-10.29-13.55-13.73a2.59,2.59,0,0,0-3.41-1.15c-1.27.62-2.59,1.56-2.67,2.83-.16,2.52-3.16,2.67-3.18,1.74s2.32-5.9,2.32-5.9-6.91,4.43-9.6,6.12-5-1.1-5-1.1S900.07,565.89,906.08,563.42Z"/><path class="cls-47" d="M1017.55,524.31S999,511.66,954.21,534.54c0,0-4.61,5.85-2.45,12.44s28.75,42.26,29.79,59c0,0,18.18,10.7,41.77.09C1023.32,606.08,1031.24,561.86,1017.55,524.31Z"/><path class="cls-48" d="M974.39,504.5l11.87,18a4.09,4.09,0,0,1-.42,4.4c-2,2.53-6.24,5.93-13.42,3.74a6.34,6.34,0,0,1-4.3-4.57l-3.79-16Z"/><path class="cls-49" d="M1031.28,574.46c1.25-8.73-21.81-25.65-21.81-25.65l8.08-24.5s44,31.41,34.75,57.06a17.84,17.84,0,0,1-5.72,8.26C1041.92,580.07,1035.6,576.1,1031.28,574.46Z"/><path class="cls-50" d="M999.1,576.88s26.09,7.29,31.5-.66a4.1,4.1,0,0,0,.68-1.76c4.32,1.64,10.64,5.61,15.3,15.17-12.38,9.75-36.27-1.18-42.76-4.45a4.57,4.57,0,0,0-3.44-.29c-2.31.72-6.31,1.84-8.54,1.71-3.26-.17-6.76,11.61-12.3,8.63C979.54,595.23,982.06,575.09,999.1,576.88Z"/><path class="cls-51" d="M947.31,493.1c0,.31,5.38,19,8.14,28.52a5.06,5.06,0,0,0,6.82,3.26l2.14-.9c2.92-1.22,8-5,8.32-8.15l-1-22.57S947.69,486.2,947.31,493.1Z"/><path class="cls-52" d="M971.59,487c.55-2.11.59-5.27-3.41-6.66s-6.79.93-8.22,2.77a1.94,1.94,0,0,1-2.43.5,1.51,1.51,0,0,0-1.72.21,1.9,1.9,0,0,1-2.75-.58,5.76,5.76,0,0,0-7-2.74c-6.69,1.76-6.8,9.35-4.62,13.6s9.32,1.94,12.78-.61c2.63-1.93,6.39-.48,8,.33a1.92,1.92,0,0,1,1,1.31l1.87,8.39c2.07.2,4.12.58,6.16,1,0-.63-.05-1.16,0-1.55.08-2.78,3.32-4.73,4.73-5.45a1.89,1.89,0,0,0,1-1.15c.53-1.76,1.13-5.79-4-7A1.93,1.93,0,0,1,971.59,487Z"/><path class="cls-53" d="M972.37,507.87s-3.48-7.57-.78-9.74,7-1.54,6.6,4.2C977.64,509.48,972.37,507.87,972.37,507.87Z"/><path class="cls-54" d="M965.78,593.49h-.14l-61-.06a2.73,2.73,0,0,1,0-5.46l61,.07a2.73,2.73,0,0,1,.13,5.45Z"/><path class="cls-55" d="M849.88,538.14h50.77a9.7,9.7,0,0,1,8.75,5.55l23.47,49.77H869.78a5.9,5.9,0,0,1-5.47-3.72l-18.2-46A4.06,4.06,0,0,1,849.88,538.14Z"/><path class="cls-56" d="M858.11,724.24a2.58,2.58,0,0,1-1-.21,2.45,2.45,0,0,1-1.34-3.26l53.72-120.91a2.6,2.6,0,0,1,3.37-1.29,2.44,2.44,0,0,1,1.34,3.25L860.47,722.73A2.58,2.58,0,0,1,858.11,724.24Z"/><path class="cls-57" d="M918.63,724.24a2.57,2.57,0,0,1-2.35-1.51L862.56,601.82a2.44,2.44,0,0,1,1.34-3.25,2.59,2.59,0,0,1,3.36,1.29L921,720.77a2.45,2.45,0,0,1-1.34,3.26A2.62,2.62,0,0,1,918.63,724.24Z"/><path class="cls-58" d="M1024.41,724.24a2.58,2.58,0,0,1-1-.21,2.45,2.45,0,0,1-1.34-3.26l53.72-120.91a2.6,2.6,0,0,1,3.37-1.29,2.44,2.44,0,0,1,1.34,3.25l-53.73,120.91A2.56,2.56,0,0,1,1024.41,724.24Z"/><path class="cls-59" d="M1084.93,724.24a2.56,2.56,0,0,1-2.35-1.51l-53.73-120.91a2.45,2.45,0,0,1,1.34-3.25,2.6,2.6,0,0,1,3.37,1.29l53.72,120.91a2.45,2.45,0,0,1-1.34,3.26A2.58,2.58,0,0,1,1084.93,724.24Z"/><path class="cls-60" d="M1091.23,596.13a2.92,2.92,0,0,0-.51-2.23,2.29,2.29,0,0,0-1.86-1H844.46a2.72,2.72,0,0,0-2.35,1.44,3.43,3.43,0,0,0-.18,3l2.65,6.42a3.71,3.71,0,0,0,3.37,2.41h239.23a2.92,2.92,0,0,0,2.76-2.55Z"/><path class="cls-61" d="M310.84,252.28c31.55,1.29,67,18.12,73.36,51.79,5.38,28.63-23.76,46.7-42.07,55.62a23.27,23.27,0,0,0-11.3,12C325.62,384.26,313,406.43,290,401.51a1.65,1.65,0,0,1-.07-3.2c5.26-1.42,12.41-4.48,15.91-10.94,4.76-8.8-1.33-19.58-11.3-20.41-18.87-1.57-56.27-10.24-65.32-53.54C216.92,254.86,310.84,252.28,310.84,252.28Z"/><path class="cls-31" d="M308.73,303s-4.5-19.45-23.6-13.16c-18.1,6-8.21,30.46,20.47,42.57a10.4,10.4,0,0,0,9.54-.75c10.73-6.67,35.33-24.82,17.55-42C321.2,278.57,308.73,303,308.73,303Z"/><path class="cls-31" d="M365.41,283.65a1.48,1.48,0,0,1-1.14-.53c-9.6-11.29-28.67-24.33-65-22.33a1.54,1.54,0,0,1-1.58-1.42,1.51,1.51,0,0,1,1.42-1.58c20.72-1.13,49.24,2,67.43,23.39a1.5,1.5,0,0,1-1.14,2.47Z"/><path class="cls-31" d="M377.49,307.66A1.5,1.5,0,0,1,376,306.4a41.87,41.87,0,0,0-2.63-8.42,1.5,1.5,0,0,1,.81-2,1.51,1.51,0,0,1,2,.81,43.78,43.78,0,0,1,2.82,9.1,1.5,1.5,0,0,1-1.24,1.72Z"/><path class="cls-31" d="M329.47,179.85l-2.73,1.23h0a.86.86,0,0,1-1.14-.43.85.85,0,0,1,.44-1.13h0l2.76-1.22a.85.85,0,0,1,1.12.43.86.86,0,0,1-.43,1.13Z"/><path class="cls-31" d="M320.47,184.12l-2.64,1.38h0A.88.88,0,1,1,317,184h0l2.67-1.39a.87.87,0,0,1,.81,1.55Z"/><path class="cls-31" d="M311.76,188.91l-2.55,1.54h0a.89.89,0,1,1-.92-1.53h0l2.59-1.55a.89.89,0,1,1,.91,1.53Z"/><path class="cls-31" d="M303.35,194.21l-2.46,1.68h0a.91.91,0,0,1-1-1.51h0l2.5-1.69a.9.9,0,0,1,1.26.24.91.91,0,0,1-.24,1.26Z"/><path class="cls-31" d="M295.26,200l-2.36,1.83h0a.93.93,0,1,1-1.14-1.48h0l2.39-1.84a.93.93,0,0,1,1.13,1.48Z"/><path class="cls-31" d="M287.51,206.21l-2.25,2h0a1,1,0,0,1-1.25-1.44h0l2.28-2a1,1,0,1,1,1.24,1.44Z"/><path class="cls-31" d="M280.12,212.87,278,215h0a1,1,0,0,1-1.36-1.4h0l2.17-2.09a1,1,0,0,1,1.37,0,1,1,0,0,1,0,1.36Z"/><path class="cls-31" d="M273.11,219.93l-2,2.2h0a1,1,0,0,1-1.46-1.35h0l2.06-2.21a1,1,0,0,1,1.44,1.34Z"/><path class="cls-31" d="M266.51,227.37l-1.91,2.3v0A1,1,0,1,1,263,228.4h0l1.93-2.32a1,1,0,1,1,1.54,1.28Z"/><path class="cls-31" d="M260.32,235.16l-1.77,2.4v0a1,1,0,0,1-1.66-1.23h0l1.8-2.42a1,1,0,0,1,1.65,1.22Z"/><path class="cls-31" d="M254.57,243.27l-1.64,2.5h0a1,1,0,0,1-1.45.31,1.06,1.06,0,0,1-.3-1.46h0l1.67-2.52a1,1,0,0,1,1.74,1.15Z"/><path class="cls-31" d="M249.28,251.7l-1.5,2.58h0a1.07,1.07,0,0,1-1.85-1.07h0l1.52-2.61a1.06,1.06,0,1,1,1.83,1.08Z"/><path class="cls-31" d="M244.46,260.4l-1.35,2.66h0a1.08,1.08,0,1,1-1.93-1h0l1.37-2.69a1.09,1.09,0,0,1,1.46-.47,1.08,1.08,0,0,1,.47,1.45Z"/><path class="cls-31" d="M240.14,269.35,239,272.08v0a1.11,1.11,0,0,1-2-.89h0l1.22-2.77a1.1,1.1,0,1,1,2,.89Z"/><path class="cls-31" d="M236.34,278.53l-1,2.79v0a1.12,1.12,0,0,1-2.11-.78h0l1.06-2.82a1.12,1.12,0,0,1,2.1.78Z"/><path class="cls-31" d="M233.08,287.9l-.87,2.85v0a1.15,1.15,0,0,1-2.19-.67h0l.9-2.89a1.14,1.14,0,1,1,2.17.68Z"/><path class="cls-31" d="M230.37,297.45l-.7,2.9v0a1.17,1.17,0,0,1-2.27-.55h0l.72-2.94a1.15,1.15,0,1,1,2.24.56Z"/><path class="cls-31" d="M228.24,307.15l-.52,2.93v0a1.18,1.18,0,1,1-2.32-.42h0l.54-3a1.19,1.19,0,0,1,1.37-.95,1.17,1.17,0,0,1,.94,1.37Z"/><path class="cls-31" d="M226.7,317l-.34,3v0a1.2,1.2,0,1,1-2.39-.27h0l.36-3a1.2,1.2,0,0,1,2.38.29Z"/><path class="cls-31" d="M225.76,326.84l-.16,3v0a1.22,1.22,0,0,1-2.44-.14h0l.18-3a1.22,1.22,0,1,1,2.43.15Z"/><path class="cls-31" d="M225.41,336.75v3a1.23,1.23,0,1,1-2.45,0h0v-3a1.23,1.23,0,0,1,2.45,0Z"/><path class="cls-31" d="M225.62,346.67l.18,3v0a1.23,1.23,0,1,1-2.46.14h0l-.17-3a1.23,1.23,0,1,1,2.45-.15Z"/><path class="cls-31" d="M226.41,356.57l.35,2.95v0a1.24,1.24,0,1,1-2.46.28h0l-.35-3a1.24,1.24,0,1,1,2.46-.28Z"/><path class="cls-31" d="M227.76,366.4l.51,2.94v0a1.24,1.24,0,0,1-2.45.43h0l-.52-3a1.24,1.24,0,0,1,2.45-.43Z"/><path class="cls-31" d="M229.65,376.15l.67,2.91v0a1.25,1.25,0,0,1-2.44.56h0l-.68-2.95a1.25,1.25,0,0,1,2.43-.56Z"/><path class="cls-31" d="M232.08,385.78l.83,2.87v0a1.26,1.26,0,1,1-2.42.7h0l-.84-2.9a1.25,1.25,0,1,1,2.41-.7Z"/><path class="cls-31" d="M235,395.27l1,2.81v0a1.26,1.26,0,0,1-.77,1.61,1.27,1.27,0,0,1-1.62-.77h0l-1-2.86a1.25,1.25,0,0,1,.77-1.61,1.26,1.26,0,0,1,1.61.78Z"/><path class="cls-31" d="M238.51,404.57l1.14,2.76v0a1.27,1.27,0,1,1-2.35,1h0l-1.15-2.8a1.27,1.27,0,0,1,2.34-1Z"/><path class="cls-31" d="M242.49,413.67l1.29,2.69v0a1.27,1.27,0,1,1-2.3,1.1h0l-1.31-2.72a1.28,1.28,0,1,1,2.3-1.11Z"/><path class="cls-31" d="M247,422.54l1.44,2.61v0a1.28,1.28,0,0,1-2.25,1.24h0l-1.46-2.65a1.3,1.3,0,0,1,.51-1.75,1.28,1.28,0,0,1,1.74.51Z"/><path class="cls-31" d="M251.93,431.14l1.59,2.52v0a1.29,1.29,0,1,1-2.19,1.37h0l-1.6-2.56a1.29,1.29,0,1,1,2.18-1.37Z"/><path class="cls-31" d="M257.38,439.44l1.72,2.42v0a1.3,1.3,0,0,1-2.12,1.51h0l-1.74-2.46a1.29,1.29,0,1,1,2.11-1.5Z"/><path class="cls-31" d="M263.28,447.41l1.86,2.32v0a1.3,1.3,0,1,1-2,1.63h0L261.23,449a1.31,1.31,0,0,1,2-1.63Z"/><path class="cls-31" d="M269.64,455l2,2.21h0A1.31,1.31,0,1,1,269.7,459h0l-2-2.25a1.31,1.31,0,0,1,1.94-1.75Z"/><path class="cls-31" d="M276.44,462.24l2.12,2.08,0,0a1.32,1.32,0,0,1-1.85,1.88h0l-2.16-2.12a1.32,1.32,0,0,1,1.85-1.88Z"/><path class="cls-31" d="M283.66,469l2.24,2h0a1.33,1.33,0,1,1-1.74,2h0l-2.28-2a1.32,1.32,0,0,1,1.74-2Z"/><path class="cls-31" d="M291.27,475.4l2.35,1.82h0a1.33,1.33,0,0,1-1.63,2.11h0l-2.39-1.86a1.33,1.33,0,0,1,1.63-2.1Z"/><path class="cls-31" d="M299.23,481.32l2.45,1.69h0a1.34,1.34,0,0,1-1.52,2.21h0l-2.48-1.72a1.33,1.33,0,0,1,1.51-2.2Z"/><path class="cls-31" d="M307.51,486.8l2.54,1.56h0a1.34,1.34,0,1,1-1.41,2.29h0l-2.57-1.58a1.34,1.34,0,0,1,1.4-2.29Z"/><path class="cls-31" d="M316.07,491.83l2.62,1.42h0a1.35,1.35,0,1,1-1.29,2.38h0l-2.65-1.45a1.35,1.35,0,1,1,1.29-2.37Z"/><path class="cls-31" d="M324.88,496.42l2.68,1.28h0a1.36,1.36,0,0,1-1.17,2.45h0l-2.73-1.31a1.36,1.36,0,1,1,1.18-2.44Z"/><path class="cls-31" d="M333.91,500.55l2.74,1.16h0a1.36,1.36,0,1,1-1.06,2.51h0l-2.78-1.17a1.36,1.36,0,1,1,1.06-2.51Z"/><path class="cls-31" d="M343.13,504.25l2.8,1h0a1.37,1.37,0,0,1-.94,2.58h0l-2.83-1.05a1.36,1.36,0,1,1,.94-2.56Z"/><path class="cls-31" d="M352.51,507.51l2.84.9h0a1.38,1.38,0,0,1-.83,2.63h0l-2.87-.91a1.37,1.37,0,1,1,.83-2.62Z"/><path class="cls-31" d="M362,510.34l2.88.77h0a1.39,1.39,0,0,1-.71,2.68h0L361.3,513a1.38,1.38,0,0,1,.72-2.67Z"/><path class="cls-31" d="M371.68,512.75l2.91.64h0a1.39,1.39,0,0,1-.59,2.72h0l-2.95-.65a1.39,1.39,0,0,1,.6-2.71Z"/><path class="cls-31" d="M381.42,514.73l2.94.52h0a1.4,1.4,0,0,1-.48,2.75h0l-3-.52a1.4,1.4,0,0,1-1.13-1.62,1.38,1.38,0,0,1,1.61-1.13Z"/><path class="cls-31" d="M391.24,516.3l3,.39h0a1.41,1.41,0,1,1-.37,2.79h0l-3-.4a1.41,1.41,0,0,1-1.2-1.58,1.4,1.4,0,0,1,1.57-1.2Z"/><path class="cls-31" d="M401.12,517.46l3,.26h0a1.41,1.41,0,1,1-.25,2.8h0l-3-.27a1.41,1.41,0,1,1,.25-2.8Z"/><path class="cls-31" d="M411,518.2l3,.15h0a1.42,1.42,0,0,1-.14,2.83h0l-3-.15a1.42,1.42,0,0,1,.15-2.83Z"/><path class="cls-31" d="M421,518.54l3,0h0a1.43,1.43,0,0,1,0,2.85h0l-3,0a1.43,1.43,0,0,1,0-2.85Z"/><path class="cls-31" d="M430.92,518.5l3-.08h0a1.43,1.43,0,0,1,.08,2.86h0l-3,.08a1.43,1.43,0,0,1-.07-2.86Z"/><path class="cls-31" d="M440.86,518.09l3-.19h0a1.44,1.44,0,1,1,.19,2.87h0l-3,.19a1.43,1.43,0,0,1-.18-2.86Z"/><path class="cls-31" d="M450.78,517.33l3-.29h0a1.43,1.43,0,0,1,1.57,1.29,1.45,1.45,0,0,1-1.29,1.58h0l-3,.29a1.43,1.43,0,0,1-1.57-1.29,1.45,1.45,0,0,1,1.29-1.58Z"/><path class="cls-31" d="M460.67,516.23l3-.39h0a1.45,1.45,0,1,1,.39,2.87h0l-3,.39a1.45,1.45,0,0,1-1.63-1.24,1.46,1.46,0,0,1,1.25-1.63Z"/><path class="cls-31" d="M470.52,514.81l3-.49h0a1.46,1.46,0,0,1,.48,2.88h0l-3,.49a1.45,1.45,0,0,1-.47-2.87Z"/><path class="cls-31" d="M480.32,513.07l2.93-.58h0a1.46,1.46,0,0,1,.56,2.87h0l-3,.58a1.46,1.46,0,0,1-.56-2.87Z"/><path class="cls-31" d="M490.07,511l2.91-.66h0a1.47,1.47,0,1,1,.65,2.87h0l-2.93.66a1.47,1.47,0,1,1-.65-2.86Z"/><path class="cls-31" d="M499.75,508.73l2.89-.74h0a1.48,1.48,0,0,1,.73,2.86h0l-2.92.75a1.48,1.48,0,0,1-.73-2.86Z"/><path class="cls-31" d="M509.37,506.16l2.87-.83h0a1.48,1.48,0,0,1,.82,2.85h0l-2.9.82a1.48,1.48,0,1,1-.81-2.84Z"/><path class="cls-31" d="M518.92,503.33l2.85-.9h0a1.49,1.49,0,0,1,.9,2.84h0l-2.87.9a1.49,1.49,0,0,1-.89-2.84Z"/><path class="cls-31" d="M528.41,500.26l2.83-1h0a1.49,1.49,0,1,1,1,2.83h0l-2.85,1a1.49,1.49,0,1,1-1-2.83Z"/><path class="cls-31" d="M537.81,497l2.81-1h0a1.5,1.5,0,1,1,1,2.82h0l-2.83,1a1.5,1.5,0,1,1-1-2.82Z"/><path class="cls-31" d="M547.15,493.45l2.78-1.09h0a1.5,1.5,0,1,1,1.1,2.8h0l-2.81,1.1a1.5,1.5,0,1,1-1.09-2.8Z"/><path class="cls-31" d="M556.4,489.74l2.76-1.15h0a1.51,1.51,0,0,1,1.17,2.79h0l-2.78,1.16a1.52,1.52,0,0,1-1.16-2.8Z"/><path class="cls-31" d="M565.58,485.84l2.74-1.21h0a1.52,1.52,0,1,1,1.23,2.79h0l-2.76,1.2a1.52,1.52,0,1,1-1.22-2.78Z"/><path class="cls-31" d="M574.68,481.77l2.72-1.25h0a1.53,1.53,0,0,1,1.27,2.78h0L576,484.54a1.52,1.52,0,0,1-1.27-2.77Z"/><path class="cls-31" d="M583.73,477.55l2.7-1.28h0a1.53,1.53,0,1,1,1.32,2.77h0L585,480.32a1.53,1.53,0,1,1-1.32-2.76Z"/><path class="cls-31" d="M592.72,473.22l2.69-1.32a1.55,1.55,0,1,1,1.37,2.77h0l-2.7,1.32a1.54,1.54,0,1,1-1.35-2.77Z"/><path class="cls-31" d="M601.68,468.8l2.68-1.35a1.55,1.55,0,0,1,1.39,2.77h0l-2.69,1.34a1.54,1.54,0,1,1-1.38-2.76Z"/><path class="cls-31" d="M610.61,464.31l2.68-1.36a1.55,1.55,0,1,1,1.4,2.77h0L612,467.08a1.55,1.55,0,1,1-1.4-2.77Z"/><path class="cls-31" d="M619.52,459.77l2.68-1.36a1.56,1.56,0,1,1,1.42,2.78h0l-2.67,1.36a1.56,1.56,0,0,1-1.42-2.78Z"/><path class="cls-31" d="M628.43,455.22l2.68-1.36a1.57,1.57,0,0,1,1.42,2.79h0L629.85,458a1.57,1.57,0,0,1-1.42-2.79Z"/><path class="cls-31" d="M637.35,450.68l2.68-1.36a1.57,1.57,0,0,1,1.42,2.81h0l-2.68,1.36a1.57,1.57,0,0,1-1.42-2.81Z"/><path class="cls-31" d="M646.29,446.17l2.69-1.34a1.58,1.58,0,0,1,1.41,2.83h0L647.7,449a1.58,1.58,0,0,1-1.41-2.83Z"/><path class="cls-31" d="M655.26,441.72l2.7-1.31a1.58,1.58,0,1,1,1.39,2.84h0l-2.7,1.31a1.59,1.59,0,1,1-1.39-2.85Z"/><path class="cls-31" d="M664.29,437.37l2.72-1.28a1.57,1.57,0,0,1,1.34,2.84h0l-2.71,1.28h0a1.58,1.58,0,0,1-1.36-2.85Z"/><path class="cls-31" d="M673.37,433.13l2.74-1.24a1.56,1.56,0,0,1,1.29,2.83h0L674.67,436h0a1.56,1.56,0,0,1-1.3-2.84Z"/><path class="cls-31" d="M682.52,429l2.75-1.2a1.54,1.54,0,1,1,1.23,2.83h0l-2.74,1.2h0a1.54,1.54,0,0,1-1.24-2.83Z"/><path class="cls-31" d="M691.74,425.09l2.78-1.14a1.52,1.52,0,0,1,1.16,2.82h0l-2.76,1.15h0a1.53,1.53,0,0,1-1.18-2.83Z"/><path class="cls-31" d="M701,421.34l2.81-1.08a1.51,1.51,0,1,1,1.09,2.82h0l-2.78,1.09h0a1.52,1.52,0,1,1-1.1-2.83Z"/><path class="cls-31" d="M710.44,417.81l2.84-1a1.5,1.5,0,1,1,1,2.82h0l-2.81,1h0a1.5,1.5,0,1,1-1-2.83Z"/><path class="cls-31" d="M719.94,414.55l2.87-.92a1.48,1.48,0,0,1,.91,2.82h0l-2.84.92h0a1.48,1.48,0,0,1-1.87-.95,1.5,1.5,0,0,1,1-1.88Z"/><path class="cls-31" d="M729.54,411.58l2.89-.83a1.47,1.47,0,1,1,.81,2.82h0l-2.86.84h0a1.46,1.46,0,0,1-1.82-1,1.48,1.48,0,0,1,1-1.83Z"/><path class="cls-31" d="M739.23,408.92l2.92-.74a1.45,1.45,0,0,1,.71,2.82h0l-2.89.73h0a1.46,1.46,0,0,1-.72-2.83Z"/><path class="cls-31" d="M749,406.59l3-.63a1.44,1.44,0,1,1,.6,2.81h0l-2.91.64h0a1.44,1.44,0,1,1-.61-2.82Z"/><path class="cls-31" d="M758.86,404.61l3-.52a1.43,1.43,0,0,1,.49,2.81h0l-2.94.52h0a1.43,1.43,0,0,1-.51-2.82Z"/><path class="cls-31" d="M768.79,403l3-.4a1.41,1.41,0,0,1,.37,2.79h0l-3,.41h0a1.41,1.41,0,1,1-.39-2.8Z"/><path class="cls-31" d="M778.78,401.83l3-.27a1.4,1.4,0,1,1,.25,2.78h0l-3,.28h0a1.4,1.4,0,0,1-.26-2.79Z"/><path class="cls-31" d="M788.81,401.09l3-.14a1.38,1.38,0,1,1,.12,2.76h0l-3,.13h0a1.39,1.39,0,0,1-1.45-1.32,1.37,1.37,0,0,1,1.32-1.45Z"/><path class="cls-31" d="M798.88,400.82h3a1.37,1.37,0,1,1,0,2.74h-3a1.37,1.37,0,1,1,0-2.74Z"/><path class="cls-31" d="M808.94,401.05l3,.18a1.35,1.35,0,0,1-.15,2.7h0l-3-.17h0a1.36,1.36,0,0,1,.15-2.71Z"/><path class="cls-31" d="M819,401.83l3,.35a1.34,1.34,0,0,1-.3,2.66h0l-3-.33h0a1.34,1.34,0,1,1,.3-2.67Z"/><path class="cls-31" d="M829,403.19l3,.52a1.32,1.32,0,1,1-.45,2.61h0l-2.93-.5h0a1.32,1.32,0,0,1,.45-2.61Z"/><path class="cls-31" d="M838.87,405.14l2.94.71a1.31,1.31,0,1,1-.62,2.54h0l-2.89-.69h0a1.31,1.31,0,0,1,.6-2.56Z"/><path class="cls-31" d="M848.61,407.72l2.89.9a1.29,1.29,0,0,1-.77,2.47h0l-2.84-.88h0a1.3,1.3,0,0,1,.76-2.48Z"/><path class="cls-31" d="M858.17,410.94,861,412a1.28,1.28,0,1,1-.92,2.38h0l-2.78-1.06h0a1.29,1.29,0,0,1,.92-2.4Z"/><path class="cls-31" d="M867.49,414.83l2.73,1.32a1.26,1.26,0,0,1-1.09,2.28h0l-2.68-1.28,0,0a1.27,1.27,0,0,1,1.09-2.29Z"/><path class="cls-31" d="M876.46,419.49l2.61,1.56a1.25,1.25,0,0,1-1.28,2.14h0l-2.55-1.51,0,0a1.26,1.26,0,0,1,1.28-2.16Z"/><path class="cls-31" d="M885,425l2.44,1.81a1.24,1.24,0,0,1-1.48,2l0,0L883.52,427l0,0a1.24,1.24,0,0,1,1.48-2Z"/><path class="cls-31" d="M892.85,431.36l2.21,2.1a1.22,1.22,0,1,1-1.69,1.77l0,0-2.14-2,0,0a1.23,1.23,0,1,1,1.69-1.78Z"/><path class="cls-31" d="M899.86,438.71l1.89,2.4a1.18,1.18,0,1,1-1.84,1.47l0,0-1.84-2.3,0,0a1.2,1.2,0,1,1,1.87-1.49Z"/><path class="cls-31" d="M905.72,447l1.49,2.67a1.14,1.14,0,0,1-2,1.12l0-.05-1.45-2.56,0,0a1.14,1.14,0,0,1,.43-1.57,1.16,1.16,0,0,1,1.57.43Z"/><path class="cls-31" d="M910.14,456.22l1,2.91a1.1,1.1,0,0,1-2.08.7l0-.06-1-2.78,0-.06a1.11,1.11,0,0,1,2.1-.72Z"/><path class="cls-31" d="M912.64,466.11l.37,3a1.06,1.06,0,0,1-2.1.26v-.06l-.37-2.91v-.07a1.07,1.07,0,0,1,2.12-.27Z"/><path class="cls-31" d="M913.16,476.29l-.23,3a1,1,0,0,1-2-.14v-.06l.19-2.94v-.06a1,1,0,0,1,1.09-.95,1,1,0,0,1,.95,1.09Z"/><path class="cls-31" d="M911.69,486.37l-.84,2.94a1,1,0,0,1-1.2.67,1,1,0,0,1-.67-1.19l0-.06.78-2.83,0-.06a1,1,0,1,1,1.89.52Z"/><path class="cls-31" d="M908.15,495.93l-1.49,2.68a.93.93,0,0,1-1.63-.89l0-.06,1.39-2.57,0-.06a.94.94,0,0,1,1.65.89Z"/><path class="cls-31" d="M902.42,504.39l-2.13,2.21a.88.88,0,0,1-1.25,0,.89.89,0,0,1,0-1.25l0-.05,2-2.12,0-.06a.91.91,0,0,1,1.27,0,.9.9,0,0,1,0,1.27Z"/><path class="cls-31" d="M894.61,511l-.76.46A.85.85,0,0,1,893,510h0l.72-.44h0a.86.86,0,0,1,.9,1.46Z"/><polygon class="cls-62" points="343.27 160.16 342.74 174.84 352.91 168.89 343.27 160.16"/><path class="cls-63" d="M409.57,154.09,368.7,187.45a3.72,3.72,0,0,1-5.32-.64l-31.95-42.3a1.5,1.5,0,0,1,1.42-2.38Z"/><polygon class="cls-64" points="343.27 160.17 409.57 154.09 348.4 167.01 348.09 171.07 343.27 160.17"/><polygon class="cls-65" points="351.48 171.04 342.74 174.84 348.4 167.01 351.48 171.04"/><path class="cls-66" d="M266.21,405.72c9.8,6.53,18.77,21.22.82,44.89-16.11,21.23-32.65,35.09-30.2,48.15s-16.64,46-55.5,24.48c-38.36-21.21-31-62,15.51-77.53C224.07,436.63,230.36,381.82,266.21,405.72Z"/><path class="cls-67" d="M297.37,487.32s-15.19,18.2-30.5,3.42L261,504.45s22.35,17.31,39.3-9.92Z"/><path class="cls-68" d="M259.84,453.54c-4.22-1.27-16.5-3.6-28.18,7.18a7.22,7.22,0,0,0-2.09,7.21c3.14,11.55,11.42,45.68,4.16,60.45,0,0,12.79,14.1,26.75,2.74,0,0,6.26-27.3,14.46-39.28,5.66-8.27-9-31.06-12.74-36.56A4.38,4.38,0,0,0,259.84,453.54Z"/><path class="cls-69" d="M253.3,431.51s-8.51,16.67-10,24.33a13.34,13.34,0,0,0,13.56-.37s3-17.38,4.39-20.38Z"/><path class="cls-70" d="M272.39,422.12s1.58,28-10.21,28.41S249.25,431,249.25,431s3.48-12.59,9.09-14.05S272.39,422.12,272.39,422.12Z"/><path class="cls-71" d="M268.92,413.47s5.39,5.51,4.46,8.93-12.48-.15-15.33-1.77l-9.54,10.16s.29-15.05,6.88-19.69S268.92,413.47,268.92,413.47Z"/><path class="cls-72" d="M252.82,431.27s-1.43-9.61-6.13-6.91.34,10.15,4,9.69Z"/><path class="cls-73" d="M276.77,588.42c0,1.24,2.13,11.06,3.31,16.3a8.6,8.6,0,0,1-.93,6.2l-41,69a9.64,9.64,0,0,0-1.07,2.69c-.75,3.24-2.31,11.17-1.5,18.39l2.12,4.41-9.17-2.09-2-24.63,2.6-1.58a12.39,12.39,0,0,0,5-5.85c3.71-9,12.91-31.92,15.29-43.1,2.69-12.69,16.79-23,16.79-23l-2.47-5.85Z"/><path class="cls-74" d="M218.33,694.85s5-7.86,5.54-10.91,2.21-8.46,5.26-6.83c0,0,1.44,14.85.94,20.65s6.56,5.61,6.56,5.61a6.63,6.63,0,0,1,3.37,1.7,1.65,1.65,0,0,1-1.11,2.78,39.34,39.34,0,0,1-9.82-.56,3,3,0,0,1-2.43-2.77l-1-17.09-6.24,7.89Z"/><path class="cls-75" d="M252.28,599.41s-1.45,61.72-1.64,70.49,1.38,28.19,10.17,34L257,706.73a51.19,51.19,0,0,1-9.44-11.88c-5.25-8.78-6.83-10.38-6.83-10.38l1.74-3.57a7.86,7.86,0,0,0,.63-5c-1.9-9.19-8.23-39.76-10-46.34-2-7.77-2.18-18.15,4.91-26.84S252.28,599.41,252.28,599.41Z"/><path class="cls-76" d="M244.16,709.51a.54.54,0,0,1-.54-.46c-.29-2.06-1.51-10.31-2.51-12.44-1.14-2.45-4.87-12.75,0-13.62,0,0,12.11,17.69,14.43,20.08a4.57,4.57,0,0,0,5.26.83,8.78,8.78,0,0,1,4,2.85,1.61,1.61,0,0,1-1.26,2.58l-8.16.08a5.74,5.74,0,0,1-5.38-3.62c-1.43-3.59-3.9-8.85-6.78-11.18l1.5,14.3a.55.55,0,0,1-.54.6Z"/><path class="cls-77" d="M262.41,524.46s-1.84,5.86,1,15.51l17.52,61.17a1.88,1.88,0,0,1-1.18,2.3c-5.24,1.88-22.47,7.2-46,5.58a2.66,2.66,0,0,1-2.43-2.08c-1.55-7-6.84-30.77-7.93-35.66-4.15-18.62-8.16-36.34,12.21-48.49C245,526.81,253.13,526.81,262.41,524.46Z"/><path class="cls-78" d="M241.28,469.07s-3.53,50.39,29,25.08c0,0,4.81-4.54,8.28-5.09,1.87-.3,4-.5,5.53-.62a.7.7,0,0,1,.45,1.27,9.26,9.26,0,0,1-3.85,1.76c-2.46.25.16,2-2.51,6.76s-6.5,2.93-6.5,2.93-37.3,38.2-44.75-28.43C226.7,460.34,238.62,461,241.28,469.07Z"/><path class="cls-79" d="M307.36,474.8l-11.07-1.46a3.5,3.5,0,0,0-3.5,2l-7.29,16.11c-1.37,2.4-.39,5.6,1.83,6l8.89,1.15a2.19,2.19,0,0,0,2.21-1.36l9.85-19.67C308.85,476.38,308.37,475,307.36,474.8Z"/><path class="cls-80" d="M299.81,496.52s7.44-10.84,6.58-12.17-7.39-3.25-8.93-3.7S293,490,299.81,496.52Z"/><path class="cls-81" d="M186.33,514.8a.42.42,0,0,0,.38-.26.41.41,0,0,0-.23-.53,27.07,27.07,0,0,1-13.61-38.41c5.3-9.44,15.45-14.71,25.27-19.82l1.18-.61c10.61-5.53,21-12.12,24.76-22.77a.41.41,0,0,0-.25-.52.4.4,0,0,0-.52.24c-3.7,10.4-13.9,16.87-24.37,22.32l-1.18.62c-9.92,5.16-20.19,10.49-25.6,20.15a27.88,27.88,0,0,0,14,39.56A.37.37,0,0,0,186.33,514.8Z"/><path class="cls-81" d="M197.29,511a.43.43,0,0,0,.4-.31.42.42,0,0,0-.3-.5c-8.26-2.09-15.15-7.25-18.45-13.81-3.71-7.4-2.53-16.61,2.8-21.91a.41.41,0,0,0,0-.58.4.4,0,0,0-.57,0c-5.58,5.54-6.82,15.15-3,22.86,3.4,6.77,10.5,12.09,19,14.23Z"/><path class="cls-82" d="M786.15,92.73l-55.31-2.88a7.51,7.51,0,0,0-8,7.84l1.43,50.86a7.45,7.45,0,0,0,8,7.12l52.51-2.59a7.23,7.23,0,0,0,6.61-7.07l1.28-45.56C792.77,96.39,789.88,92.93,786.15,92.73Z"/><path class="cls-31" d="M756.83,143.41a20.83,20.83,0,1,1,20.83-20.83A20.86,20.86,0,0,1,756.83,143.41Zm0-38.17a17.34,17.34,0,1,0,17.34,17.34A17.36,17.36,0,0,0,756.83,105.24Z"/><path class="cls-83" d="M750.3,130.6v-15a2.07,2.07,0,0,1,3.12-1.78L766,121.34a2.07,2.07,0,0,1,0,3.55l-12.62,7.49A2.07,2.07,0,0,1,750.3,130.6Z"/><path class="cls-84" d="M239,161.65l-55.31-2.88a7.51,7.51,0,0,0-8,7.84l1.43,50.86a7.45,7.45,0,0,0,8,7.12L237.6,222a7.24,7.24,0,0,0,6.61-7.08l1.28-45.56C245.6,165.31,242.71,161.84,239,161.65Z"/><path class="cls-31" d="M229,208H199.52a2.5,2.5,0,0,1-2.4-1.79l-8.34-28.13-8.41-1.1a2.5,2.5,0,1,1,.64-5l10,1.31a2.5,2.5,0,0,1,2.07,1.77l8.27,27.9h25.56l3.78-20a2.5,2.5,0,0,1,4.92.93l-4.17,22A2.49,2.49,0,0,1,229,208Z"/><path class="cls-31" d="M232,185H193a2.5,2.5,0,0,1,0-5h39a2.5,2.5,0,0,1,0,5Z"/><path class="cls-31" d="M206.5,205.5A2.5,2.5,0,0,1,204,203V183a2.5,2.5,0,0,1,5,0v20A2.5,2.5,0,0,1,206.5,205.5Z"/><path class="cls-31" d="M220.5,205.5A2.5,2.5,0,0,1,218,203V183a2.5,2.5,0,0,1,5,0v20A2.5,2.5,0,0,1,220.5,205.5Z"/><path class="cls-31" d="M230,196H196a2.5,2.5,0,0,1,0-5h34a2.5,2.5,0,0,1,0,5Z"/><path class="cls-31" d="M207.79,213.91a3.49,3.49,0,1,1-3.49-3.49A3.48,3.48,0,0,1,207.79,213.91Z"/><path class="cls-31" d="M229,213.91a3.49,3.49,0,1,1-3.48-3.49A3.48,3.48,0,0,1,229,213.91Z"/><path class="cls-85" d="M959.83,295l-55.3-2.87a7.51,7.51,0,0,0-8,7.83L898,350.81a7.47,7.47,0,0,0,8,7.12l52.51-2.6a7.23,7.23,0,0,0,6.61-7.07l1.28-45.56C966.46,298.64,963.57,295.18,959.83,295Z"/><path class="cls-31" d="M951,344H912a6,6,0,0,1-6-6V310a6,6,0,0,1,6-6H951a6,6,0,0,1,6,6V338A6,6,0,0,1,951,344ZM912,309a1,1,0,0,0-1,1V338a1,1,0,0,0,1,1H951a1,1,0,0,0,1-1V310a1,1,0,0,0-1-1Z"/><path class="cls-31" d="M931.13,326.71a2.54,2.54,0,0,1-1.44-.46L908,310.85a2.5,2.5,0,0,1,2.9-4.08l20.26,14.37,20-14.2A2.5,2.5,0,0,1,954,311l-21.44,15.23A2.48,2.48,0,0,1,931.13,326.71Z"/><path class="cls-31" d="M909.83,344.29l-.78-4.94.37,2.47-2.1-1.34c.44-.73,8.25-14.38,13.38-23.37a2.5,2.5,0,1,1,4.34,2.48l-6.7,11.73-4.63,8.08C911,344.09,911,344.09,909.83,344.29Z"/><path class="cls-31" d="M952.32,344.29c-1.2-.19-1.2-.19-3.9-4.89l-4.62-8.08c-3.36-5.86-6.71-11.73-6.71-11.73a2.5,2.5,0,0,1,4.35-2.48c5.13,9,12.94,22.64,13.38,23.37l-2.1,1.34Z"/><path class="cls-86" d="M176.62,362.43l-55.31-2.88a7.51,7.51,0,0,0-8,7.84l1.43,50.86a7.46,7.46,0,0,0,8,7.12l52.52-2.6a7.21,7.21,0,0,0,6.6-7.07l1.29-45.56C183.25,366.08,180.35,362.62,176.62,362.43Z"/><path class="cls-31" d="M152.18,372a1.41,1.41,0,0,0-1.88,1.33v25.38a12,12,0,0,0-7.58-2.57c-5.85,0-10.59,3.79-10.59,8.47s4.74,8.47,10.59,8.47,10.58-3.79,10.58-8.47v-.12h0V379.22c4.2.64,7,3.82,8.71,6.42a1.26,1.26,0,0,0,2.32-.75C163.91,377,155.91,373.28,152.18,372Z"/><path class="cls-87" d="M1062.31,424.85,1007,422a7.51,7.51,0,0,0-8,7.84l1.43,50.86a7.46,7.46,0,0,0,8,7.12l52.52-2.59a7.23,7.23,0,0,0,6.6-7.08l1.28-45.56C1068.94,428.51,1066,425,1062.31,424.85Z"/><path class="cls-31" d="M1021.54,476.58a6.38,6.38,0,1,1,6.38-6.38A6.38,6.38,0,0,1,1021.54,476.58Zm0-10.22a3.85,3.85,0,1,0,3.85,3.84A3.85,3.85,0,0,0,1021.54,466.36Z"/><path class="cls-31" d="M1021.54,456.6a13.62,13.62,0,0,1,13.61,13.6c0,.47,0,.93-.07,1.38a.92.92,0,0,0,1.05,1l2-.3a.93.93,0,0,0,.79-.85c0-.42,0-.83,0-1.26a17.43,17.43,0,0,0-17.41-17.4,17,17,0,0,0-2.15.13.94.94,0,0,0-.8,1.08l.32,1.93a.94.94,0,0,0,1,.76A12.06,12.06,0,0,1,1021.54,456.6Z"/><path class="cls-31" d="M1021.54,446.78A23.45,23.45,0,0,1,1045,470.2v0a.91.91,0,0,0,1,.91l1.94-.29.81-.92A27.25,27.25,0,0,0,1021.54,443a26.87,26.87,0,0,0-3.83.27.92.92,0,0,0-.77,1.07l.33,1.92a.91.91,0,0,0,1,.76A23.35,23.35,0,0,1,1021.54,446.78Z"/><path class="cls-31" d="M1021.54,437a33.26,33.26,0,0,1,33.19,31.81.92.92,0,0,0,1.06.89l1.93-.28a.92.92,0,0,0,.79-1,36.93,36.93,0,0,0-42.45-34.84.93.93,0,0,0-.77,1.07l.33,1.92a.94.94,0,0,0,1.06.76A32.52,32.52,0,0,1,1021.54,437Z"/><path class="cls-88" d="M1037.85,203.32,992.7,201a6.13,6.13,0,0,0-6.52,6.39l1.17,41.52a6.09,6.09,0,0,0,6.51,5.81l42.87-2.12a5.89,5.89,0,0,0,5.39-5.77l1-37.19A5.92,5.92,0,0,0,1037.85,203.32Z"/><path class="cls-31" d="M1031.93,208H1000c-3,0-7,2.2-7,5.25V231c0,2.93,4.09,5,7,5h22c.76,0,1,1.75,1,2.51v2.62c0,1.08,1.14,1.48,1.68,1.66a2.25,2.25,0,0,0,1.25.44,1.55,1.55,0,0,0,1.18-.52l4.71-5.57c3-.07,4.18-3.21,4.18-6.14V213.25C1036,210.35,1034.83,208,1031.93,208Zm1.07,23c0,1.37,0,3-1.07,3h-1.19l-5.74,5.53v-3.85c0-.76.56-1.68-.2-1.68H1000c-1.36,0-4-1.64-4-3V214c0-2,2.65-2,4-2h31.91c1.35,0,1.07-.1,1.07,1.25Z"/><path class="cls-31" d="M1030,217a1,1,0,0,1-1,1h-29a1,1,0,0,1-1-1h0a1,1,0,0,1,1-1h29a1,1,0,0,1,1,1Z"/><path class="cls-31" d="M1030,222a1,1,0,0,1-1,1h-29a1,1,0,0,1-1-1h0a1,1,0,0,1,1-1h29a1,1,0,0,1,1,1Z"/><path class="cls-31" d="M1030,229a1,1,0,0,1-1,1h-29a1,1,0,0,1-1-1h0a1,1,0,0,1,1-1h29a1,1,0,0,1,1,1Z"/><path class="cls-31" d="M908.72,215.85l-24.43-1.27a3.31,3.31,0,0,0-3.53,3.46l.63,22.47a3.29,3.29,0,0,0,3.52,3.14l23.2-1.14a3.2,3.2,0,0,0,2.92-3.13l.57-20.13A3.2,3.2,0,0,0,908.72,215.85Z"/><path class="cls-31" d="M948.21,176l-17-.89a2.3,2.3,0,0,0-2.45,2.41l.44,15.63a2.29,2.29,0,0,0,2.45,2.19l16.14-.8a2.22,2.22,0,0,0,2-2.17l.39-14A2.24,2.24,0,0,0,948.21,176Z"/><path class="cls-31" d="M1013.57,362.61l-19.93-1a2.71,2.71,0,0,0-2.88,2.83l.51,18.33a2.69,2.69,0,0,0,2.88,2.57l18.93-.94a2.6,2.6,0,0,0,2.38-2.55l.46-16.42A2.62,2.62,0,0,0,1013.57,362.61Z"/><path class="cls-31" d="M1073.05,399.07l-9.87-.51a1.34,1.34,0,0,0-1.42,1.4L1062,409a1.33,1.33,0,0,0,1.42,1.27l9.37-.46a1.29,1.29,0,0,0,1.18-1.26l.23-8.13A1.31,1.31,0,0,0,1073.05,399.07Z"/><path class="cls-31" d="M129.57,266.61l-19.93-1a2.71,2.71,0,0,0-2.88,2.83l.51,18.33a2.69,2.69,0,0,0,2.88,2.57l18.93-.94a2.6,2.6,0,0,0,2.38-2.55l.46-16.42A2.62,2.62,0,0,0,129.57,266.61Z"/><path class="cls-31" d="M189.05,303.07l-9.87-.51a1.34,1.34,0,0,0-1.42,1.4L178,313a1.33,1.33,0,0,0,1.42,1.27l9.37-.46a1.29,1.29,0,0,0,1.18-1.26l.23-8.13A1.31,1.31,0,0,0,189.05,303.07Z"/><path class="cls-31" d="M297.24,133.53l-15.3-.8a2.08,2.08,0,0,0-2.21,2.17l.4,14.07a2.06,2.06,0,0,0,2.21,2l14.52-.71a2,2,0,0,0,1.83-2l.36-12.61A2,2,0,0,0,297.24,133.53Z"/><path class="cls-31" d="M487.76,664.07a2.15,2.15,0,0,1-.82-.17l-8.65-3.56a2.13,2.13,0,0,1-1.32-2.11l.41-7a35.36,35.36,0,0,1-7-7l-7,.44a2.12,2.12,0,0,1-2.11-1.31l-3.6-8.64a2.15,2.15,0,0,1,.55-2.43l5.22-4.64a35.32,35.32,0,0,1,0-9.85l-5.24-4.62a2.14,2.14,0,0,1-.57-2.42l3.57-8.65a2.08,2.08,0,0,1,2.1-1.32l7,.41a34.82,34.82,0,0,1,6.95-7l-.44-7a2.13,2.13,0,0,1,1.32-2.11l8.63-3.6a2.14,2.14,0,0,1,2.42.55l4.64,5.22a35.33,35.33,0,0,1,9.85,0l4.62-5.24a2.16,2.16,0,0,1,2.43-.57l8.65,3.57a2.15,2.15,0,0,1,1.32,2.1l-.41,7a35.09,35.09,0,0,1,7,6.95l7-.44a2.13,2.13,0,0,1,2.11,1.31l3.6,8.64a2.14,2.14,0,0,1-.56,2.43l-5.21,4.63a35.33,35.33,0,0,1,0,9.85l5.24,4.62a2.13,2.13,0,0,1,.56,2.42l-3.56,8.66a2.12,2.12,0,0,1-2.11,1.32l-7-.41a35.36,35.36,0,0,1-7,7l.44,7a2.14,2.14,0,0,1-1.31,2.11l-8.64,3.6a2.14,2.14,0,0,1-2.43-.56l-4.64-5.22a34.88,34.88,0,0,1-9.84,0l-4.63,5.24A2.13,2.13,0,0,1,487.76,664.07Zm.32-2.94h0Zm21.66,0ZM480,657.8l7.52,3.1,5.3-6,.82.14a32.63,32.63,0,0,0,10.53,0l.81-.14,5.33,6,7.51-3.13-.5-8,.67-.49a32.24,32.24,0,0,0,7.42-7.46l.48-.67,8,.47,3.1-7.52-6-5.31.14-.81a32.63,32.63,0,0,0,0-10.53l-.14-.82,6-5.32-3.13-7.51-8,.5-.49-.67a32.47,32.47,0,0,0-7.46-7.43l-.67-.48.47-8-7.52-3.1-5.31,6-.81-.13a32.35,32.35,0,0,0-10.53,0l-.82.13-5.32-6-7.51,3.12.5,8-.67.48a32.67,32.67,0,0,0-7.43,7.46l-.48.68-8-.47-3.1,7.52,6,5.3-.13.82a32.35,32.35,0,0,0,0,10.53l.13.81-6,5.33,3.12,7.51,8-.51.49.68a32.39,32.39,0,0,0,7.45,7.42l.68.48Zm37.85.54Zm16.66-16.73h0ZM479.3,588Zm8.64-3.6h0Zm-.58-1.39h0Zm11.69,63.91a24.08,24.08,0,0,1-23.87-27.55,1.5,1.5,0,0,1,3,.43A21,21,0,1,0,487,605.52a1.5,1.5,0,1,1-1.71-2.46,23.64,23.64,0,0,1,4.5-2.46,24.08,24.08,0,1,1,9.29,46.31Z"/><path class="cls-31" d="M498.82,632.55a9.83,9.83,0,0,1-9.69-8.37A9.84,9.84,0,0,1,497.4,613h0a9.81,9.81,0,0,1,2.88,19.41A9.06,9.06,0,0,1,498.82,632.55Zm-1-16.55a6.81,6.81,0,0,0,2,13.48,6.81,6.81,0,0,0-2-13.48Z"/><path class="cls-31" d="M561.83,679.12a1.83,1.83,0,0,1-1.65-1L559,675.39A17.4,17.4,0,0,1,555,674.2l-2.51,1.55a1.82,1.82,0,0,1-2.09-.13l-3.49-2.86a1.79,1.79,0,0,1-.55-2l1-2.77a17.62,17.62,0,0,1-1.95-3.63l-2.87-.67a1.81,1.81,0,0,1-1.38-1.58l-.45-4.48a1.81,1.81,0,0,1,1-1.83l2.67-1.23a17.71,17.71,0,0,1,1.19-3.94l-1.55-2.51a1.79,1.79,0,0,1,.14-2.09l2.85-3.49a1.8,1.8,0,0,1,2-.55l2.76,1a17.8,17.8,0,0,1,3.62-2l.68-2.86a1.82,1.82,0,0,1,1.58-1.39l4.48-.45a1.79,1.79,0,0,1,1.82,1l1.24,2.67a17.71,17.71,0,0,1,3.94,1.19l2.51-1.55a1.81,1.81,0,0,1,2.09.14l3.49,2.85a1.8,1.8,0,0,1,.55,2l-1,2.77a17.88,17.88,0,0,1,1.95,3.63l2.86.68a1.81,1.81,0,0,1,1.39,1.58l.45,4.47a1.83,1.83,0,0,1-1,1.83l-2.68,1.23a17.4,17.4,0,0,1-1.19,3.94l1.55,2.51a1.82,1.82,0,0,1-.14,2.1l-2.85,3.48a1.8,1.8,0,0,1-2,.55l-2.77-1a18.15,18.15,0,0,1-3.63,1.95l-.68,2.87a1.79,1.79,0,0,1-1.58,1.38l-4.47.45Zm-7-8.33.74.37a15,15,0,0,0,4.61,1.39l.82.1,1.56,3.39,2.79-.28.86-3.63.78-.27a14.71,14.71,0,0,0,4.24-2.27l.66-.51,3.5,1.29,1.77-2.17-2-3.17.36-.74a14.72,14.72,0,0,0,1.39-4.61l.11-.82,3.39-1.56-.28-2.79-3.63-.86-.27-.78a14.74,14.74,0,0,0-2.28-4.24l-.5-.65,1.29-3.51-2.17-1.77-3.17,2-.75-.36a14.58,14.58,0,0,0-4.6-1.39l-.82-.11-1.56-3.39-2.79.28-.86,3.63-.78.27a14.61,14.61,0,0,0-4.24,2.28l-.66.5-3.5-1.29-1.77,2.17,2,3.17-.37.75a14.84,14.84,0,0,0-1.39,4.6l-.1.82-3.39,1.57.28,2.78,3.63.86.27.78a14.83,14.83,0,0,0,2.27,4.24l.51.66-1.29,3.5,2.17,1.77Zm11.36,4.89Zm8.66-4.65h0Zm2.85-3.48h0Zm-34.64-9h0Zm3.51-10.61h0Zm.09-1.38h0ZM575.43,645h0Zm-27.36-.22h0Zm25.26-2.54h0Zm-12-3.61h0Zm1-.8h0Zm-.22,32.32A12.39,12.39,0,0,1,549.89,659a12.42,12.42,0,0,1,1.11-6.5,1.5,1.5,0,0,1,2.72,1.28,9.36,9.36,0,1,0,7.54-5.33,9,9,0,0,0-2,.4,1.5,1.5,0,1,1-.93-2.85A12.38,12.38,0,0,1,570,648.22a12.36,12.36,0,0,1-6.59,21.87A10.64,10.64,0,0,1,562.17,670.16Z"/></g></g></svg>